<?xml version="1.0" encoding="utf-8"?>
<!-- Generator: Adobe Illustrator 16.0.0, SVG Export Plug-In . SVG Version: 6.00 Build 0)  -->
<!DOCTYPE svg PUBLIC "-//W3C//DTD SVG 1.1//EN" "http://www.w3.org/Graphics/SVG/1.1/DTD/svg11.dtd">
<svg version="1.1" id="Calque_1" xmlns="http://www.w3.org/2000/svg" xmlns:xlink="http://www.w3.org/1999/xlink" x="0px" y="0px"
	 width="60px" height="60px" viewBox="0 0 60 60" enable-background="new 0 0 60 60" xml:space="preserve">
<g>
	<path fill-rule="evenodd" clip-rule="evenodd" d="M34.925,1.25c0,8.075,0,16.15,0,24.719c2.666,0.172,5.039,0.325,8.548,0.55
		c-4.628,6.297-8.816,11.994-13.534,18.412c-4.641-6.308-8.754-11.896-13.412-18.225c3.084-0.29,5.417-0.506,8.397-0.786
		c0-8.174,0-16.422,0-24.67C28.258,1.25,31.592,1.25,34.925,1.25z"/>
	<path fill-rule="evenodd" clip-rule="evenodd" d="M0,55.022c20,0,40,0,60,0c0,1.651,0,3.305,0,4.978c-20,0-40,0-60,0
		C0,58.325,0,56.673,0,55.022z"/>
</g>
</svg>
