<?xml version="1.0" encoding="utf-8"?>
<!-- Generator: Adobe Illustrator 16.0.0, SVG Export Plug-In . SVG Version: 6.00 Build 0)  -->
<!DOCTYPE svg PUBLIC "-//W3C//DTD SVG 1.1//EN" "http://www.w3.org/Graphics/SVG/1.1/DTD/svg11.dtd">
<svg version="1.1" id="Calque_1" xmlns="http://www.w3.org/2000/svg" xmlns:xlink="http://www.w3.org/1999/xlink" x="0px" y="0px"
	 width="600px" height="123.838px" viewBox="0 0 600 123.838" enable-background="new 0 0 600 123.838" xml:space="preserve">
<g>
	<g>
		<path d="M536.035,0c-35.324,0-63.969,28.637-63.969,63.967c0,28.262,18.328,52.24,43.746,60.699
			c3.197,0.592,4.369-1.389,4.369-3.08c0-1.523-0.059-6.563-0.086-11.906c-17.797,3.867-21.551-7.549-21.551-7.549
			c-2.91-7.395-7.104-9.361-7.104-9.361c-5.803-3.969,0.436-3.889,0.436-3.889c6.426,0.451,9.809,6.594,9.809,6.594
			c5.703,9.779,14.963,6.951,18.613,5.316c0.576-4.135,2.234-6.957,4.063-8.555c-14.207-1.615-29.145-7.104-29.145-31.613
			c0-6.984,2.498-12.689,6.592-17.17c-0.666-1.613-2.854-8.119,0.619-16.93c0,0,5.371-1.719,17.592,6.559
			c5.104-1.418,10.576-2.129,16.014-2.152c5.436,0.025,10.91,0.736,16.023,2.152c12.209-8.275,17.574-6.559,17.574-6.559
			c3.48,8.811,1.291,15.316,0.629,16.93c4.102,4.479,6.58,10.186,6.58,17.172c0,24.566-14.963,29.977-29.207,31.559
			c2.295,1.984,4.338,5.879,4.338,11.848c0,8.559-0.072,15.447-0.072,17.553c0,1.699,1.152,3.697,4.393,3.068
			C581.695,116.184,600,92.213,600,63.961C600.004,28.637,571.363,0,536.035,0z"/>
		<path d="M496.295,91.842c-0.143,0.318-0.641,0.412-1.096,0.193c-0.467-0.211-0.725-0.641-0.574-0.961
			c0.135-0.324,0.637-0.418,1.102-0.197c0.467,0.209,0.73,0.646,0.572,0.965H496.295z M498.887,94.734
			c-0.305,0.281-0.902,0.15-1.307-0.299c-0.42-0.447-0.496-1.043-0.188-1.328c0.313-0.283,0.891-0.15,1.309,0.295
			c0.422,0.453,0.504,1.043,0.184,1.33L498.887,94.734z M501.408,98.414c-0.391,0.273-1.033,0.018-1.428-0.551
			c-0.395-0.566-0.395-1.25,0.006-1.523c0.398-0.273,1.029-0.027,1.43,0.537c0.395,0.578,0.395,1.262-0.008,1.539V98.414z
			 M504.863,101.975c-0.352,0.387-1.098,0.283-1.643-0.244c-0.561-0.516-0.715-1.25-0.365-1.635
			c0.357-0.387,1.107-0.279,1.656,0.244c0.559,0.516,0.727,1.248,0.352,1.633V101.975z M509.633,104.041
			c-0.156,0.502-0.875,0.729-1.6,0.518c-0.725-0.219-1.197-0.807-1.053-1.313c0.15-0.504,0.875-0.74,1.604-0.514
			c0.723,0.217,1.195,0.797,1.047,1.309H509.633z M514.865,104.424c0.02,0.525-0.596,0.965-1.355,0.975
			c-0.766,0.018-1.385-0.41-1.395-0.93c0-0.531,0.602-0.965,1.367-0.977C514.242,103.477,514.865,103.9,514.865,104.424
			L514.865,104.424z M519.736,103.596c0.09,0.514-0.436,1.043-1.191,1.184c-0.744,0.139-1.43-0.182-1.525-0.691
			c-0.09-0.527,0.447-1.053,1.188-1.191c0.756-0.133,1.434,0.178,1.529,0.701V103.596z"/>
	</g>
	<path d="M87.537,53.539H49.35c-0.986,0-1.785,0.799-1.785,1.785v18.672c0,0.986,0.799,1.785,1.785,1.785h14.893V98.98
		c0,0-3.344,1.141-12.6,1.141c-10.906,0-26.148-3.98-26.148-37.502c0-33.525,15.875-37.939,30.779-37.939
		c12.896,0,18.451,2.27,21.992,3.365c1.105,0.338,2.141-0.77,2.141-1.756l4.26-18.041c0.014-0.549-0.244-1.068-0.688-1.393
		C82.541,5.828,73.783,0.932,51.65,0.932C26.154,0.932,0,11.773,0,63.926c0,52.143,29.945,59.912,55.176,59.912
		c20.895,0,33.568-8.93,33.568-8.93c0.521-0.285,0.578-1.018,0.578-1.355V55.32c0-0.986-0.799-1.785-1.785-1.785V53.539z
		 M282.588,5.387h-21.506c-0.986,0.004-1.781,0.805-1.777,1.791v0.004l0.006,41.557h-33.52V7.182
		c0.006-0.986-0.789-1.791-1.773-1.795l0,0h-21.504c-0.986,0.004-1.781,0.807-1.777,1.791v0.004v112.531
		c0,0.988,0.799,1.795,1.777,1.795h21.504c0.984-0.006,1.779-0.809,1.773-1.795v-0.004V71.578h33.52l-0.057,48.131
		c0,0.992,0.799,1.799,1.785,1.799h21.549c0.986-0.006,1.781-0.809,1.775-1.795v-0.004V7.178
		C284.363,6.186,283.576,5.387,282.588,5.387L282.588,5.387z M114.252,7.945c-7.652,0-13.863,6.256-13.863,14
		c0,7.734,6.211,14.008,13.863,14.008c7.66,0,13.865-6.273,13.865-14.008C128.117,14.201,121.906,7.945,114.252,7.945z
		 M124.803,42.236h-21.436c-0.986,0-1.863,1.014-1.863,1.998v74.422c0,2.188,1.363,2.838,3.125,2.838h19.311
		c2.121,0,2.639-1.043,2.639-2.873V95.973V44.031c0.006-0.986-0.791-1.787-1.775-1.793l0,0V42.236z M366.09,42.404h-21.344
		c-0.984,0.008-1.777,0.813-1.77,1.797l0,0v55.178c0,0-5.424,3.963-13.117,3.963c-7.689,0-9.732-3.486-9.732-11.021V44.201
		c0.008-0.984-0.785-1.789-1.77-1.797c-0.002,0-0.002,0-0.004,0h-21.656c-0.986,0.008-1.781,0.811-1.777,1.797v51.76
		c0,22.377,12.473,27.852,29.629,27.852c14.076,0,25.426-7.781,25.426-7.781s0.535,4.105,0.785,4.586
		c0.25,0.486,0.883,0.977,1.57,0.977l13.777-0.061c0.988-0.006,1.789-0.809,1.783-1.799l0,0l-0.01-75.543
		c-0.004-0.984-0.799-1.785-1.785-1.791L366.09,42.404z M424.416,39.877c-12.121,0-20.365,5.408-20.365,5.408V7.178
		c0.004-0.984-0.789-1.789-1.773-1.795l0,0h-21.563c-0.986,0-1.783,0.799-1.783,1.785c0,0,0,0.006,0,0.01v112.531
		c-0.008,0.986,0.787,1.789,1.773,1.795c0.004,0,0.008,0,0.01,0h14.963c0.676,0,1.184-0.348,1.559-0.957
		c0.367-0.605,0.906-5.188,0.906-5.188s8.816,8.35,25.512,8.35c19.594,0,30.836-9.936,30.836-44.619s-17.953-39.217-30.08-39.217
		L424.416,39.877z M415.99,103.277c-7.398-0.225-12.418-3.584-12.418-3.584V64.057c0,0,4.953-3.033,11.027-3.584
		c7.684-0.688,15.09,1.637,15.09,19.967c0,19.332-3.338,23.148-13.693,22.834L415.99,103.277z M188.684,102.855
		c-0.939,0-3.346,0.383-5.818,0.383c-7.922,0-10.609-3.684-10.609-8.453V63.143h16.133c0.984,0,1.783-0.799,1.783-1.783
		c0-0.004,0-0.01,0-0.014V44.012c0.004-0.984-0.791-1.785-1.777-1.789c-0.002,0-0.004,0-0.006,0h-16.133l-0.025-21.309
		c0-0.809-0.414-1.213-1.35-1.213h-21.984c-0.85,0-1.311,0.379-1.311,1.195v22.021c0,0-11.018,2.658-11.76,2.873
		c-0.762,0.221-1.285,0.92-1.285,1.713v13.838c-0.006,0.986,0.789,1.789,1.773,1.795l0,0h11.271v33.291
		c0,24.734,17.346,27.16,29.053,27.16c5.342,0,11.74-1.713,12.799-2.105c0.643-0.238,1.01-0.898,1.01-1.615l0.016-15.223
		c-0.018-0.98-0.807-1.773-1.785-1.793L188.684,102.855z"/>
</g>
</svg>
