<?xml version="1.0" encoding="utf-8"?>
<!-- Generator: Adobe Illustrator 16.0.0, SVG Export Plug-In . SVG Version: 6.00 Build 0)  -->
<!DOCTYPE svg PUBLIC "-//W3C//DTD SVG 1.1//EN" "http://www.w3.org/Graphics/SVG/1.1/DTD/svg11.dtd">
<svg version="1.1" xmlns="http://www.w3.org/2000/svg" xmlns:xlink="http://www.w3.org/1999/xlink" x="0px" y="0px"
	 width="141.732px" height="141.732px" viewBox="0 0 141.732 141.732" enable-background="new 0 0 141.732 141.732"
	 xml:space="preserve">
<g id="Layer_1">
	<g id="code_x5F_html5">
	</g>
	<g>
		<polygon fill="#E6A329" points="119.634,30.409 79.358,30.409 79.358,30.409 39.083,30.409 46.631,112.294 79.358,121.573 
			79.358,121.573 79.358,121.573 79.358,121.573 79.358,121.573 112.075,112.294 		"/>
		<polygon fill="#F1BF22" points="79.358,37.079 79.358,114.638 79.358,114.638 105.86,107.126 112.315,37.079 		"/>
		<polygon fill="#FFFFFF" points="100.444,47.127 59.68,47.127 56.847,77.788 56.907,77.595 91.534,77.595 90.403,90.563 
			79.358,93.749 68.145,90.517 67.472,82.667 57.292,82.667 58.746,98.353 79.358,104.206 99.972,98.353 102.808,67.571 
			66.065,67.571 66.534,57.307 92.036,57.307 92.411,63.182 102.683,63.182 		"/>
		<g>
			<path fill="#EBEBEB" d="M79.358,47.127H59.68l-2.833,30.661l0.06-0.193h22.451V67.571H67.483l0.468-10.264h11.407V47.127z
				 M67.472,82.667h-10.18l1.455,15.686l20.612,5.84V93.749l-11.214-3.232L67.472,82.667z"/>
		</g>
	</g>
</g>
<g id="Layer_2">
</g>
</svg>
