<?xml version="1.0" encoding="utf-8"?>
<!-- Generator: Adobe Illustrator 16.0.0, SVG Export Plug-In . SVG Version: 6.00 Build 0)  -->
<!DOCTYPE svg PUBLIC "-//W3C//DTD SVG 1.1//EN" "http://www.w3.org/Graphics/SVG/1.1/DTD/svg11.dtd">
<svg version="1.1" id="Layer_1" xmlns="http://www.w3.org/2000/svg" xmlns:xlink="http://www.w3.org/1999/xlink" x="0px" y="0px"
	 width="1700px" height="4837px" viewBox="205 -1120 1700 4837" enable-background="new 205 -1120 1700 4837" xml:space="preserve">
<linearGradient id="Background_1_" gradientUnits="userSpaceOnUse" x1="205" y1="1298.5" x2="1905" y2="1298.5">
	<stop  offset="0" style="stop-color:#141E30"/>
	<stop  offset="0.2922" style="stop-color:#1B2B40"/>
	<stop  offset="0.6855" style="stop-color:#223750"/>
	<stop  offset="1" style="stop-color:#243B55"/>
</linearGradient>
<rect id="Background" x="205" y="-1120" fill="url(#Background_1_)" stroke="#000000" stroke-miterlimit="10" width="1700" height="4837"/>
<g opacity="0.3">
	<g>
		<polygon fill="#999999" points="617.417,3398.108 1050.498,3398.108 1050.498,3716.133 1056.373,3716.133 1056.373,3392.375 
			631.604,3392.375 1144.509,2892.174 1144.509,2179.26 1012.305,2050.33 1012.305,1538.936 1006.431,1538.936 1006.431,2052.702 
			1138.633,2181.632 1138.633,2889.801 		"/>
		<g>
			<path fill="#FFFFFF" d="M987.277,1540.155c0-11.898,9.892-21.544,22.091-21.544c12.201,0,22.089,9.646,22.089,21.544
				c0,11.895-9.888,21.544-22.089,21.544C997.169,1561.699,987.277,1552.05,987.277,1540.155z"/>
			<path fill="#999999" d="M984.34,1540.155c0-13.459,11.229-24.41,25.028-24.41c13.796,0,25.026,10.951,25.026,24.41
				c0,13.457-11.23,24.408-25.026,24.408C995.569,1564.563,984.34,1553.612,984.34,1540.155
				C984.34,1526.696,984.34,1553.612,984.34,1540.155z M1028.522,1540.155c0-10.302-8.592-18.68-19.154-18.68
				c-10.562,0-19.156,8.378-19.156,18.68c0,10.301,8.594,18.678,19.156,18.678
				C1019.93,1558.833,1028.522,1550.456,1028.522,1540.155C1028.522,1529.854,1028.522,1550.456,1028.522,1540.155z"/>
		</g>
	</g>
	<g>
		<polygon fill="#999999" points="686.033,3542.732 686.033,3717 691.89,3717 691.89,3548.447 885.3,3548.447 885.3,2834.24 
			1229.371,2834.24 750.5,2367.394 750.5,1826.048 744.64,1826.048 744.64,2369.761 1215.223,2828.524 879.437,2828.524 
			879.437,3542.732 		"/>
		<g>
			<path fill="#FFFFFF" d="M725.535,1827.267c0-11.866,9.867-21.485,22.035-21.485c12.17,0,22.035,9.619,22.035,21.485
				c0,11.86-9.865,21.479-22.035,21.479C735.402,1848.746,725.535,1839.127,725.535,1827.267z"/>
			<path fill="#999999" d="M722.607,1827.267c0-13.422,11.199-24.342,24.963-24.342s24.963,10.92,24.963,24.342
				c0,13.416-11.199,24.336-24.963,24.336S722.607,1840.683,722.607,1827.267C722.607,1813.845,722.607,1840.683,722.607,1827.267z
				 M766.675,1827.267c0-10.274-8.568-18.628-19.105-18.628s-19.105,8.354-19.105,18.628c0,10.271,8.568,18.622,19.105,18.622
				S766.675,1837.537,766.675,1827.267C766.675,1816.992,766.675,1837.537,766.675,1827.267z"/>
		</g>
	</g>
	<g>
		<path fill="#999999" d="M1491.895,2167.276l19.457,33.699h-38.914L1491.895,2167.276z M1491.895,2173.136l-14.379,24.908h28.76
			L1491.895,2173.136z"/>
		<path fill="#999999" d="M1491.895,2126.249l19.457,33.699h-38.914L1491.895,2126.249z M1491.895,2132.11l-14.379,24.908h28.76
			L1491.895,2132.11z"/>
		<path fill="#999999" d="M1491.895,2085.224l19.457,33.699h-38.914L1491.895,2085.224z M1491.895,2091.085l-14.379,24.908h28.76
			L1491.895,2091.085z"/>
		<path fill="#999999" d="M1491.895,2044.198l19.457,33.699h-38.914L1491.895,2044.198z M1491.895,2050.06l-14.379,24.906h28.76
			L1491.895,2050.06z"/>
	</g>
	<g>
		<g>
			<polygon fill="#999999" points="1354.166,2565.619 1354.166,3296.276 1465.521,3296.276 1465.521,3716.799 1471.381,3716.799 
				1471.381,3290.559 1360.025,3290.559 1360.025,2567.986 1547.572,2384.902 1547.572,1708.862 1541.713,1708.862 
				1541.713,2382.532 			"/>
			<g>
				<ellipse fill="#FFFFFF" cx="1544.642" cy="1710.081" rx="22.036" ry="21.511"/>
				<path fill="#999999" d="M1519.676,1710.081c0-13.438,11.201-24.371,24.967-24.371s24.967,10.933,24.967,24.371
					c0,13.436-11.201,24.371-24.967,24.371S1519.676,1723.517,1519.676,1710.081
					C1519.676,1696.643,1519.676,1723.517,1519.676,1710.081z M1563.746,1710.081c0-10.285-8.566-18.651-19.104-18.651
					s-19.105,8.366-19.105,18.651c0,10.286,8.568,18.65,19.105,18.65S1563.746,1720.367,1563.746,1710.081
					C1563.746,1699.796,1563.746,1720.367,1563.746,1710.081z"/>
			</g>
		</g>
		<g>
			<path fill="#999999" d="M1544.643,2339.19c33.932,0,61.537,27.604,61.537,61.539s-27.605,61.539-61.537,61.539
				s-61.537-27.604-61.537-61.539S1510.711,2339.19,1544.643,2339.19z M1544.643,2345.052c-30.701,0-55.68,24.977-55.68,55.678
				s24.979,55.678,55.68,55.678c30.699,0,55.678-24.977,55.678-55.678S1575.342,2345.052,1544.643,2345.052z"/>
			<circle fill="#999999" cx="1544.643" cy="2400.729" r="35.165"/>
		</g>
	</g>
	<g>
		<g>
			<polygon fill="#999999" points="504.347,2170.063 504.347,2620.66 727.058,2620.66 727.058,3044.312 1109.727,3044.312 
				1219.367,3151.409 1219.367,3717 1225.227,3717 1225.227,3149.038 1112.154,3038.586 732.919,3038.586 732.919,2614.935 
				510.205,2614.935 510.205,2172.434 665.519,2020.721 665.519,1661.992 659.658,1661.992 659.658,2018.352 			"/>
			<g>
				<path fill="#FFFFFF" d="M640.556,1663.21c0-11.885,9.865-21.524,22.035-21.524c12.162,0,22.035,9.64,22.035,21.524
					c0,11.886-9.873,21.524-22.035,21.524C650.421,1684.734,640.556,1675.096,640.556,1663.21z"/>
				<path fill="#999999" d="M637.623,1663.21c0-13.445,11.199-24.387,24.969-24.387c13.762,0,24.963,10.941,24.963,24.387
					c0,13.444-11.201,24.388-24.963,24.388C648.822,1687.598,637.623,1676.654,637.623,1663.21
					C637.623,1649.765,637.623,1676.654,637.623,1663.21z M681.691,1663.21c0-10.291-8.564-18.663-19.1-18.663
					c-10.541,0-19.107,8.372-19.107,18.663c0,10.293,8.566,18.662,19.107,18.662C673.126,1681.872,681.691,1673.503,681.691,1663.21
					C681.691,1652.919,681.691,1673.503,681.691,1663.21z"/>
			</g>
		</g>
		<g>
			<path fill="#999999" d="M729.986,2571.996c25.855,0,46.889,20.548,46.889,45.803c0,25.254-21.033,45.802-46.889,45.802
				c-25.85,0-46.883-20.548-46.883-45.802C683.103,2592.544,704.136,2571.996,729.986,2571.996z M729.986,2577.724
				c-22.617,0-41.023,17.981-41.023,40.075c0,22.095,18.406,40.074,41.023,40.074c22.619,0,41.027-17.979,41.027-40.074
				C771.013,2595.705,752.605,2577.724,729.986,2577.724z"/>
			<path fill="#999999" d="M729.986,2592.035c14.568,0,26.375,11.534,26.375,25.764c0,14.229-11.807,25.762-26.375,25.762
				c-14.563,0-26.371-11.533-26.371-25.762C703.615,2603.569,715.423,2592.035,729.986,2592.035z"/>
		</g>
	</g>
	<g>
		<polygon points="1080.172,2338.202 1080.172,3141.431 1288.23,3349.03 1288.23,3716.842 1291.162,3716.842 1291.162,3347.819 
			1083.104,3140.218 1083.104,2341.125 1329.258,2341.125 1329.258,1254.469 1326.326,1254.469 1326.326,2338.202 		"/>
		<g>
			<polygon points="1319.277,1260.263 1327.791,1228.565 1336.305,1260.263 			"/>
		</g>
	</g>
	<g>
		<polygon points="605.447,2349.279 605.447,2836.866 921.927,2836.866 921.927,3717 924.863,3717 924.863,2834.113 
			608.375,2834.113 608.375,2352.037 860.39,2352.037 860.39,1014.233 857.46,1014.233 857.46,2349.279 		"/>
		<g>
			<polygon points="850.414,1020.042 858.925,988.272 867.439,1020.042 			"/>
		</g>
	</g>
</g>
<g opacity="0.3">
	<g>
		<polygon fill="#999999" points="1493.109,-801.797 1061.125,-801.797 1061.125,-1120.785 1055.266,-1120.785 1055.266,-796.047 
			1478.959,-796.047 967.352,-294.33 967.352,420.744 1099.221,550.064 1099.221,1063.009 1105.08,1063.009 1105.08,547.686 
			973.213,418.365 973.213,-291.949 		"/>
		<g>
			<path fill="#FFFFFF" d="M1124.186,1061.785c0,11.935-9.867,21.609-22.035,21.609c-12.17,0-22.033-9.675-22.033-21.609
				c0-11.931,9.863-21.609,22.033-21.609C1114.318,1040.176,1124.186,1049.854,1124.186,1061.785z"/>
			<path fill="#999999" d="M1127.115,1061.785c0,13.5-11.201,24.484-24.965,24.484c-13.762,0-24.963-10.984-24.963-24.484
				c0-13.497,11.201-24.482,24.963-24.482C1115.914,1037.303,1127.115,1048.288,1127.115,1061.785
				C1127.115,1075.285,1127.115,1048.288,1127.115,1061.785z M1083.045,1061.785c0,10.334,8.57,18.736,19.105,18.736
				s19.107-8.402,19.107-18.736c0-10.331-8.572-18.734-19.107-18.734S1083.045,1051.454,1083.045,1061.785
				C1083.045,1072.119,1083.045,1051.454,1083.045,1061.785z"/>
		</g>
	</g>
	<g>
		<polygon fill="#999999" points="1424.494,-946.822 1424.494,-1121.648 1418.637,-1121.648 1418.637,-952.555 1225.227,-952.555 
			1225.227,-236.057 881.156,-236.057 1360.027,232.288 1360.027,775.371 1365.887,775.371 1365.887,229.914 895.305,-230.322 
			1231.09,-230.322 1231.09,-946.822 		"/>
		<g>
			<path fill="#FFFFFF" d="M1384.992,774.121c0,12.172-9.867,22.039-22.035,22.039c-12.17,0-22.035-9.867-22.035-22.039
				c0-12.166,9.865-22.033,22.035-22.033C1375.125,752.088,1384.992,761.955,1384.992,774.121z"/>
			<path fill="#999999" d="M1387.92,774.121c0,13.768-11.199,24.969-24.963,24.969s-24.963-11.201-24.963-24.969
				c0-13.762,11.199-24.963,24.963-24.963S1387.92,760.359,1387.92,774.121C1387.92,787.889,1387.92,760.359,1387.92,774.121z
				 M1343.852,774.121c0,10.539,8.568,19.107,19.105,19.107s19.105-8.568,19.105-19.107c0-10.535-8.568-19.102-19.105-19.102
				S1343.852,763.586,1343.852,774.121C1343.852,784.66,1343.852,763.586,1343.852,774.121z"/>
		</g>
	</g>
	<g>
		<path fill="#999999" d="M618.633,434.738l-19.457-33.699h38.914L618.633,434.738z M618.633,428.879l14.379-24.908h-28.76
			L618.633,428.879z"/>
		<path fill="#999999" d="M618.633,475.766l-19.457-33.699h38.914L618.633,475.766z M618.633,469.904l14.379-24.908h-28.76
			L618.633,469.904z"/>
		<path fill="#999999" d="M618.633,516.791l-19.457-33.699h38.914L618.633,516.791z M618.633,510.93l14.379-24.908h-28.76
			L618.633,510.93z"/>
		<path fill="#999999" d="M618.633,557.816l-19.457-33.699h38.914L618.633,557.816z M618.633,551.955l14.379-24.906h-28.76
			L618.633,551.955z"/>
	</g>
	<g>
		<g>
			<polygon fill="#999999" points="756.361,33.515 756.361,-699.534 645.006,-699.534 645.006,-1121.434 639.146,-1121.434 
				639.146,-693.797 750.502,-693.797 750.502,31.14 562.955,214.824 562.955,893.076 568.814,893.076 568.814,217.201 			"/>
			<g>
				<ellipse fill="#FFFFFF" cx="565.886" cy="891.854" rx="22.036" ry="21.582"/>
				<path fill="#999999" d="M590.852,891.854c0,13.482-11.201,24.451-24.967,24.451s-24.967-10.969-24.967-24.451
					c0-13.479,11.201-24.45,24.967-24.45S590.852,878.374,590.852,891.854C590.852,905.336,590.852,878.374,590.852,891.854z
					 M546.781,891.854c0,10.318,8.566,18.713,19.104,18.713s19.105-8.395,19.105-18.713c0-10.319-8.568-18.712-19.105-18.712
					S546.781,881.534,546.781,891.854C546.781,902.172,546.781,881.534,546.781,891.854z"/>
			</g>
		</g>
		<g>
			<path fill="#999999" d="M565.885,276.283c-33.932,0-61.537-27.035-61.537-60.271c0-33.237,27.605-60.271,61.537-60.271
				s61.537,27.035,61.537,60.271C627.422,249.248,599.816,276.283,565.885,276.283z M565.885,270.542
				c30.701,0,55.68-24.462,55.68-54.531s-24.979-54.531-55.68-54.531c-30.699,0-55.678,24.462-55.678,54.531
				S535.186,270.542,565.885,270.542z"/>
			<ellipse fill="#999999" cx="565.885" cy="216.012" rx="35.164" ry="34.441"/>
		</g>
	</g>
	<g>
		<g>
			<polygon fill="#999999" points="1606.18,430.76 1606.18,-20.849 1383.469,-20.849 1383.469,-445.45 1000.801,-445.45 
				891.16,-552.789 891.16,-1119.648 885.301,-1119.648 885.301,-550.412 998.373,-439.712 1377.607,-439.712 1377.607,-15.11 
				1600.322,-15.11 1600.322,428.383 1445.008,580.437 1445.008,939.971 1450.869,939.971 1450.869,582.812 			"/>
			<g>
				<path fill="#FFFFFF" d="M1469.971,938.75c0,11.911-9.865,21.573-22.035,21.573c-12.162,0-22.035-9.662-22.035-21.573
					c0-11.912,9.873-21.572,22.035-21.572C1460.105,917.178,1469.971,926.838,1469.971,938.75z"/>
				<path fill="#999999" d="M1472.904,938.75c0,13.476-11.199,24.441-24.969,24.441c-13.762,0-24.963-10.966-24.963-24.441
					c0-13.475,11.201-24.442,24.963-24.442C1461.705,914.308,1472.904,925.275,1472.904,938.75
					C1472.904,952.226,1472.904,925.275,1472.904,938.75z M1428.836,938.75c0,10.314,8.564,18.705,19.1,18.705
					c10.541,0,19.107-8.391,19.107-18.705c0-10.315-8.566-18.704-19.107-18.704C1437.4,920.046,1428.836,928.435,1428.836,938.75
					C1428.836,949.064,1428.836,928.435,1428.836,938.75z"/>
			</g>
		</g>
		<g>
			<path fill="#999999" d="M1380.541,27.924c-25.855,0-46.889-20.594-46.889-45.905c0-25.312,21.033-45.905,46.889-45.905
				c25.85,0,46.883,20.594,46.883,45.905C1427.424,7.331,1406.391,27.924,1380.541,27.924z M1380.541,22.184
				c22.617,0,41.023-18.022,41.023-40.165c0-22.145-18.406-40.165-41.023-40.165c-22.619,0-41.027,18.021-41.027,40.165
				C1339.514,4.162,1357.922,22.184,1380.541,22.184z"/>
			<path fill="#999999" d="M1380.541,7.841c-14.568,0-26.375-11.561-26.375-25.821s11.807-25.82,26.375-25.82
				c14.563,0,26.371,11.559,26.371,25.82S1395.104,7.841,1380.541,7.841z"/>
		</g>
	</g>
	<g>
		<polygon points="1030.355,261.359 1030.355,-543.645 822.297,-751.703 822.297,-1120.328 819.365,-1120.328 819.365,-750.49 
			1027.424,-542.43 1027.424,258.43 781.27,258.43 781.27,1347.488 784.201,1347.488 784.201,261.359 		"/>
		<g>
			<polygon points="791.25,1341.682 782.736,1373.449 774.223,1341.682 			"/>
		</g>
	</g>
	<g>
		<polygon points="1505.08,250.087 1505.08,-239.007 1188.6,-239.007 1188.6,-1121.863 1185.664,-1121.863 1185.664,-236.247 
			1502.152,-236.247 1502.152,247.321 1250.137,247.321 1250.137,1589.262 1253.066,1589.262 1253.066,250.087 		"/>
		<g>
			<polygon points="1260.113,1583.785 1251.602,1613.742 1243.088,1583.785 			"/>
		</g>
	</g>
</g>
</svg>
