<?xml version="1.0" encoding="utf-8"?>
<!-- Generator: Adobe Illustrator 16.0.0, SVG Export Plug-In . SVG Version: 6.00 Build 0)  -->
<!DOCTYPE svg PUBLIC "-//W3C//DTD SVG 1.1//EN" "http://www.w3.org/Graphics/SVG/1.1/DTD/svg11.dtd">
<svg version="1.1" id="Calque_1" xmlns="http://www.w3.org/2000/svg" xmlns:xlink="http://www.w3.org/1999/xlink" x="0px" y="0px"
	 width="500px" height="132.438px" viewBox="0 0 500 132.438" enable-background="new 0 0 500 132.438" xml:space="preserve">
<g>
	<path fill="#006699" d="M368.396,9.487c0-5.235,4.357-9.487,9.727-9.487h112.15C495.646,0,500,4.252,500,9.487v113.466
		c0,5.237-4.354,9.485-9.727,9.485h-112.15c-5.369,0-9.727-4.248-9.727-9.482V9.487L368.396,9.487z"/>
	<path d="M0,110.937h54.92V92.904H19.878V24.111H0V110.937z M82.729,110.937v-59.8H62.85v59.8H82.729z M72.791,42.969
		c6.93,0,11.244-4.59,11.244-10.332c-0.129-5.869-4.314-10.33-11.113-10.33c-6.801,0-11.247,4.465-11.247,10.33
		c0,5.742,4.315,10.332,10.985,10.332H72.791z M91.957,110.937h19.874V77.539c0-1.787,0.13-3.574,0.656-4.849
		c1.436-3.57,4.705-7.271,10.198-7.271c7.192,0,10.073,5.485,10.073,13.522v31.992h19.873V76.647
		c0-18.371-9.806-26.917-22.884-26.917c-10.725,0-15.434,5.992-18.047,10.078h0.13v-8.672H91.957
		C92.219,56.748,91.957,110.937,91.957,110.937z M180.674,24.111h-19.878v86.825h19.878v-19.39l4.969-6.254l15.563,25.644h24.453
		l-26.151-37.123l22.883-25.255h-23.929c0,0-16.347,22.594-17.787,25.276V24.111z"/>
	<path d="M278.813,85.991c0.261-1.534,0.654-4.48,0.654-7.813c0-15.459-7.849-31.153-28.509-31.153
		c-22.1,0-32.302,17.477-32.302,33.33c0,19.609,12.424,31.849,34.131,31.849c8.633,0,16.608-1.27,23.147-3.95l-2.615-13.127
		c-5.363,1.779-10.855,2.67-17.654,2.67c-9.282,0-17.39-3.813-18.044-11.936l41.191,0.125V85.991z M237.492,72.543
		c0.522-5.104,3.924-12.632,12.424-12.632c9.021,0,11.114,8.038,11.114,12.632h-23.536H237.492z M328.53,24.111v30.058h-0.262
		c-2.878-4.208-8.894-7.014-16.865-7.014c-15.303,0-28.771,12.246-28.643,33.164c0,19.392,12.163,32.021,27.331,32.021
		c8.238,0,16.082-3.574,20.01-10.464h0.389l0.787,9.06h17.653c-0.261-4.211-0.524-11.481-0.524-18.625v-68.2H328.53L328.53,24.111z
		 M328.53,83.256c0,1.528-0.13,3.063-0.394,4.332c-1.174,5.49-5.883,9.313-11.636,9.313c-8.237,0-13.601-6.633-13.601-17.092
		c0-9.822,4.58-17.73,13.732-17.73c6.145,0,10.459,4.207,11.637,9.438c0.261,1.148,0.261,2.427,0.261,3.575V83.256L328.53,83.256z"
		/>
	<path fill="#FFFFFF" d="M408.289,110.864V51.062h-19.876v59.803h19.878H408.289z M398.354,42.897
		c6.931,0,11.245-4.593,11.245-10.329c-0.13-5.869-4.314-10.333-11.111-10.333c-6.805,0-11.248,4.464-11.248,10.333
		c0,5.736,4.313,10.329,10.984,10.329H398.354L398.354,42.897z M419.292,110.864h19.876V77.471c0-1.783,0.129-3.574,0.653-4.85
		c1.437-3.571,4.708-7.271,10.202-7.271c7.188,0,10.066,5.484,10.066,13.523v31.99h19.876V76.576
		c0-18.369-9.806-26.918-22.882-26.918c-10.722,0-15.43,5.993-18.047,10.075h0.131v-8.67h-19.876c0.261,5.61,0,59.803,0,59.803
		V110.864z"/>
</g>
</svg>
