<?xml version="1.0" encoding="utf-8"?>
<!-- Generator: Adobe Illustrator 16.0.0, SVG Export Plug-In . SVG Version: 6.00 Build 0)  -->
<!DOCTYPE svg PUBLIC "-//W3C//DTD SVG 1.1//EN" "http://www.w3.org/Graphics/SVG/1.1/DTD/svg11.dtd">
<svg version="1.1" id="Calque_1" xmlns="http://www.w3.org/2000/svg" xmlns:xlink="http://www.w3.org/1999/xlink" x="0px" y="0px"
	 width="100px" height="100px" viewBox="0 0 100 100" enable-background="new 0 0 100 100" xml:space="preserve">
<g id="Logo_Css_3">
	<path fill="#2062AF" d="M90.624,90.276L50,100L9.375,90.276L0,0h100L90.624,90.276z"/>
	<path fill="#3C9CD7" d="M50,7.313v84.933l0.092,0.021l32.875-7.869l7.588-77.085H50L50,7.313z"/>
	<path fill="#FFFFFF" d="M49.963,29.885L20.887,40.649l0.964,10.657l28.112-10.685l29.904-11.365l1.24-10.901L49.963,29.885
		L49.963,29.885z"/>
	
		<linearGradient id="SVGID_1_" gradientUnits="userSpaceOnUse" x1="-1070.2017" y1="2367.4365" x2="-1070.2017" y2="2362.8223" gradientTransform="matrix(4.6418 0 0 4.6418 5003.0859 -10937.8633)">
		<stop  offset="0.387" style="stop-color:#D1D3D4;stop-opacity:0"/>
		<stop  offset="1" style="stop-color:#D1D3D4"/>
	</linearGradient>
	<path fill="url(#SVGID_1_)" d="M20.887,40.649l0.964,10.657l28.112-10.685V29.885L20.887,40.649z"/>
	
		<linearGradient id="SVGID_2_" gradientUnits="userSpaceOnUse" x1="-1063.7144" y1="2365.1348" x2="-1063.7144" y2="2360.3379" gradientTransform="matrix(4.6418 0 0 4.6418 5003.0859 -10937.8633)">
		<stop  offset="0.387" style="stop-color:#D1D3D4;stop-opacity:0"/>
		<stop  offset="1" style="stop-color:#D1D3D4"/>
	</linearGradient>
	<path fill="url(#SVGID_2_)" d="M81.107,18.355L49.963,29.885v10.737l29.904-11.365L81.107,18.355z"/>
	
		<linearGradient id="SVGID_3_" gradientUnits="userSpaceOnUse" x1="-1073.3232" y1="2369.4951" x2="-1060.8545" y2="2369.4951" gradientTransform="matrix(4.6418 0 0 4.6418 5003.0859 -10937.8633)">
		<stop  offset="0" style="stop-color:#E8E7E5"/>
		<stop  offset="1" style="stop-color:#FFFFFF"/>
	</linearGradient>
	<path fill="url(#SVGID_3_)" d="M20.932,40.649l0.964,10.657l43.135,0.122l-0.966,14.209L49.872,69.19l-13.645-3.063l-0.827-8.82
		H22.723l1.654,17.027l25.632,6.736l25.495-6.614l3.307-33.808H20.932z"/>
	<path opacity="0.05" enable-background="new    " d="M49.963,40.649H20.887l0.964,10.657l28.112,0.079V40.649L49.963,40.649z
		 M49.963,69.156l-0.138,0.034l-13.643-3.063l-0.827-8.82H22.678l1.654,17.027l25.631,6.737V69.156z"/>
	
		<linearGradient id="SVGID_4_" gradientUnits="userSpaceOnUse" x1="-1073.8975" y1="2361.5117" x2="-1060.3594" y2="2361.5117" gradientTransform="matrix(4.6418 0 0 4.6418 5003.0859 -10937.8633)">
		<stop  offset="0" style="stop-color:#E8E7E5"/>
		<stop  offset="1" style="stop-color:#FFFFFF"/>
	</linearGradient>
	<path fill="url(#SVGID_4_)" d="M18.268,18.355h62.839l-1.24,10.902H19.784L18.268,18.355z"/>
	<path opacity="0.05" enable-background="new    " d="M49.963,18.355H18.268l1.516,10.902h30.179V18.355L49.963,18.355z"/>
</g>
</svg>
