<?xml version="1.0" encoding="utf-8"?>
<!-- Generator: Adobe Illustrator 16.0.0, SVG Export Plug-In . SVG Version: 6.00 Build 0)  -->
<!DOCTYPE svg PUBLIC "-//W3C//DTD SVG 1.1//EN" "http://www.w3.org/Graphics/SVG/1.1/DTD/svg11.dtd">
<svg version="1.1" id="Calque_1" xmlns="http://www.w3.org/2000/svg" xmlns:xlink="http://www.w3.org/1999/xlink" x="0px" y="0px"
	 width="100px" height="100px" viewBox="0 0 100 100" enable-background="new 0 0 100 100" xml:space="preserve">
<g>
	<title>Bootstrap</title>
	<path fill="#563D7C" d="M100,83.333C100,92.5,92.5,100,83.334,100H16.667C7.5,100,0,92.5,0,83.333V16.667C0,7.5,7.5,0,16.667,0
		h66.667C92.5,0,100,7.5,100,16.667V83.333z"/>
	<path fill="#FFFFFF" d="M27.173,21.732h28.35c5.229,0,9.428,1.193,12.582,3.595c3.152,2.402,4.738,6.013,4.738,10.866
		c0,2.941-0.719,5.458-2.158,7.549c-1.438,2.092-3.496,3.726-6.176,4.87v0.163c3.596,0.768,6.324,2.468,8.17,5.099
		c1.846,2.646,2.777,5.947,2.777,9.934c0,2.288-0.408,4.429-1.225,6.406c-0.818,1.993-2.092,3.709-3.84,5.146
		s-3.971,2.582-6.699,3.432s-5.965,1.274-9.723,1.274H27.173V21.732z M37.385,46.16h16.667c2.451,0,4.492-0.687,6.127-2.092
		c1.635-1.405,2.451-3.398,2.451-6.013c0-2.941-0.736-5.017-2.205-6.209c-1.471-1.193-3.596-1.797-6.373-1.797H37.385V46.16
		L37.385,46.16z M37.385,71.732h18.056c3.104,0,5.523-0.801,7.223-2.419c1.715-1.601,2.58-3.889,2.58-6.83
		c0-2.892-0.85-5.098-2.58-6.667c-1.732-1.568-4.119-2.32-7.223-2.32H37.385V71.732z"/>
</g>
</svg>
