<?xml version="1.0" encoding="utf-8"?>
<!-- Generator: Adobe Illustrator 16.0.0, SVG Export Plug-In . SVG Version: 6.00 Build 0)  -->
<!DOCTYPE svg PUBLIC "-//W3C//DTD SVG 1.1//EN" "http://www.w3.org/Graphics/SVG/1.1/DTD/svg11.dtd">
<svg version="1.1" id="Calque_1" xmlns="http://www.w3.org/2000/svg" xmlns:xlink="http://www.w3.org/1999/xlink" x="0px" y="0px"
	 width="100px" height="100px" viewBox="0 0 100 100" enable-background="new 0 0 100 100" xml:space="preserve">
<g transform="translate(241.59, -4.64258)">
	<path fill="#00618A" d="M-149.5,82.035c-5.454-0.152-9.621,0.365-13.184,1.896c-1.013,0.436-2.627,0.447-2.792,1.74
		c0.557,0.594,0.643,1.48,1.085,2.213c0.851,1.402,2.286,3.283,3.568,4.27c1.399,1.076,2.843,2.229,4.344,3.162
		c2.669,1.658,5.649,2.605,8.22,4.268c1.515,0.98,3.02,2.213,4.497,3.32c0.731,0.547,1.223,1.396,2.172,1.738
		c0-0.053,0-0.105,0-0.158c-0.499-0.646-0.628-1.537-1.086-2.213c-0.671-0.686-1.344-1.371-2.016-2.057
		c-1.972-2.666-4.475-5.008-7.136-6.955c-2.12-1.553-6.869-3.648-7.755-6.166c-0.052-0.053-0.103-0.105-0.155-0.158
		c1.505-0.172,3.266-0.727,4.654-1.105c2.332-0.639,4.416-0.473,6.824-1.107c1.086-0.316,2.172-0.633,3.257-0.949
		c0-0.211,0-0.42,0-0.631c-1.217-1.275-2.085-2.959-3.412-4.111c-3.474-3.014-7.265-6.027-11.168-8.537
		c-2.164-1.393-4.84-2.299-7.135-3.479c-0.771-0.396-2.127-0.604-2.638-1.266c-1.204-1.566-1.861-3.551-2.79-5.375
		c-1.947-3.822-3.859-7.996-5.584-12.016c-1.177-2.741-1.945-5.445-3.413-7.904c-7.043-11.803-14.624-18.927-26.367-25.929
		c-2.499-1.489-5.508-2.077-8.688-2.846c-1.704-0.104-3.411-0.211-5.117-0.316c-1.042-0.443-2.125-1.742-3.103-2.371
		c-3.89-2.505-13.869-7.954-16.751-0.79c-1.819,4.521,2.72,8.934,4.343,11.225c1.14,1.607,2.599,3.41,3.412,5.218
		c0.535,1.188,0.628,2.379,1.087,3.636c1.127,3.097,2.108,6.466,3.566,9.328c0.737,1.447,1.55,2.974,2.482,4.269
		c0.571,0.794,1.551,1.145,1.705,2.372c-0.957,1.366-1.013,3.487-1.551,5.217c-2.424,7.792-1.509,17.475,2.017,23.241
		c1.082,1.77,3.631,5.566,7.135,4.109c3.065-1.271,2.381-5.215,3.258-8.695c0.197-0.789,0.076-1.367,0.465-1.896
		c0,0.053,0,0.105,0,0.158c0.931,1.896,1.861,3.795,2.792,5.691c2.066,3.391,5.733,6.938,8.841,9.328
		c1.611,1.24,2.88,3.385,4.964,4.111c0-0.053,0-0.105,0-0.158c-0.053,0-0.104,0-0.155,0c-0.404-0.643-1.035-0.908-1.551-1.424
		c-1.214-1.213-2.564-2.721-3.568-4.109c-2.826-3.912-5.323-8.193-7.6-12.648c-1.087-2.127-2.031-4.475-2.947-6.641
		c-0.354-0.836-0.349-2.098-1.085-2.529c-1.004,1.586-2.481,2.869-3.258,4.742c-1.241,2.996-1.4,6.648-1.861,10.436
		c-0.271,0.1-0.15,0.029-0.311,0.156c-2.16-0.529-2.92-2.797-3.722-4.742c-2.03-4.918-2.408-12.836-0.621-18.497
		c0.462-1.465,2.552-6.078,1.706-7.431c-0.403-1.351-1.735-2.131-2.481-3.163c-0.923-1.274-1.844-2.954-2.482-4.427
		c-1.661-3.834-2.438-8.139-4.188-12.015c-0.836-1.853-2.25-3.728-3.412-5.375c-1.286-1.825-2.726-3.169-3.723-5.376
		c-0.354-0.784-0.835-2.04-0.311-2.846c0.168-0.544,0.403-0.771,0.932-0.948c0.899-0.707,3.405,0.234,4.343,0.632
		c2.487,1.053,4.563,2.056,6.67,3.479c1.011,0.684,2.034,2.005,3.257,2.371c0.465,0,0.931,0,1.396,0
		c2.184,0.512,4.63,0.159,6.67,0.79c3.605,1.117,6.836,2.854,9.771,4.744c8.94,5.753,16.249,13.943,21.25,23.714
		c0.804,1.573,1.152,3.075,1.86,4.743c1.43,3.365,3.23,6.829,4.652,10.118c1.42,3.283,2.804,6.598,4.809,9.328
		c1.056,1.438,5.129,2.207,6.98,3.004c1.298,0.561,3.424,1.143,4.653,1.896c2.348,1.445,4.623,3.162,6.825,4.744
		C-153.052,78.873-149.669,80.605-149.5,82.035z"/>
</g>
</svg>
