<?xml version="1.0" encoding="utf-8"?>
<!-- Generator: Adobe Illustrator 16.0.0, SVG Export Plug-In . SVG Version: 6.00 Build 0)  -->
<!DOCTYPE svg PUBLIC "-//W3C//DTD SVG 1.1//EN" "http://www.w3.org/Graphics/SVG/1.1/DTD/svg11.dtd">
<svg version="1.1" id="Calque_1" xmlns="http://www.w3.org/2000/svg" xmlns:xlink="http://www.w3.org/1999/xlink" x="0px" y="0px"
	 width="100px" height="100px" viewBox="0 0 100 100" enable-background="new 0 0 100 100" xml:space="preserve">
<g>
	<g>
		<g>
			<polygon fill="#5868A4" points="100,0 50,0 50,0 0,0 9.371,89.822 50,100 50,100 50,100 50,100 50,100 90.615,89.822 			"/>
			<polygon fill="#8799CB" points="50,7.316 50,92.393 50,92.393 82.902,84.152 90.914,7.316 			"/>
		</g>
	</g>
	<g>
		
			<path fill-rule="evenodd" clip-rule="evenodd" fill="#231F20" stroke="#231F20" stroke-width="0.216" stroke-miterlimit="2.4142" d="
			M48.17,54.861c0.186,2.147,0.168,5.643-0.111,7.735c-0.141,1.063-0.447,1.282-1.084,1.755c-2.057,1.523-8.934,1.884-9.785-1.347
			c-0.318-0.01-0.059-1.058-0.365-1.026c-0.773,0.077-2.258-0.638-2.967-1.812c0.01-3.536,0.408-16.306-5.916-12.872
			c-1.471,0.798-2.217,1.889-2.881,3.525c-0.463,1.143-0.543,2.55-0.588,4.06c-0.053,1.763,0.391,3.691,0.451,5.806
			c0.025,0.947,0.18,1.188-0.523,1.992c-1.133,1.297-3.113,0.199-4.186-1.222c-0.488-0.647-0.658-1.603-0.717-2.387
			c-0.689-9.133-0.164-18.645,2.48-27.525c0.902-3.03,1.221-3.473,4.104-4.16c3.15-0.751,6.912-0.893,9.996-0.59
			c2.596-0.841,8.758-5.414,11.412-1.789c8.215-1.473,16.43-0.621,23.658,4.318c3.453,0.308,7.063,0.289,10.518,0.185
			c0.502-0.314,1.066-0.649,1.58-0.941c0.4-0.227,0.734-0.44,1.225-0.517c0.568-0.09,1.307-0.115,1.469,0.586
			c0.143,0.619,0.197,1.406,0.145,2.202c-0.049,0.768-0.648,1.811-1.58,1.878c-0.906-0.236-1.934-0.36-2.838-0.925
			c-3.209,0.082-5.182-0.083-8.391,0c0.518,0.551,0.486,0.916,0.871,1.651c2.506,4.798,0.15,12.943-1.92,14.758
			c-0.229,3.675,0.047,7.396,0.074,11.085c0.008,1.277,0.104,2.485-1.096,3.326c-1.766,1.238-4.846,1.52-7.078,0.588
			c-0.684-0.285-1.146-0.907-1.646-1.366c-0.475-0.013-0.881,0.116-1.234,0.019c-0.713-0.197-1.301-0.642-1.703-1.249
			c-0.25-0.377-0.371-0.816-0.578-1.299c0-1.728-0.063-2.406-0.063-4.134C55.326,55.654,51.748,55.859,48.17,54.861L48.17,54.861z"
			/>
		
			<path fill-rule="evenodd" clip-rule="evenodd" fill="#6978AB" stroke="#231F20" stroke-width="0.216" stroke-miterlimit="2.4142" d="
			M59.736,54.77c0.781-0.082,1.563-0.216,2.344-0.463c0.486,2.044,0.379,4.479,0.34,6.785c-1.244,0.031-2.221-0.514-2.807-1.634
			C59.479,57.916,59.541,56.312,59.736,54.77L59.736,54.77z"/>
		
			<linearGradient id="SVGID_1_" gradientUnits="userSpaceOnUse" x1="-129.4683" y1="468.479" x2="-88.4549" y2="519.1263" gradientTransform="matrix(1 0 0 1 161.5225 -449.1553)">
			<stop  offset="0" style="stop-color:#8A9FE0"/>
			<stop  offset="1" style="stop-color:#576490"/>
		</linearGradient>
		<path fill-rule="evenodd" clip-rule="evenodd" fill="url(#SVGID_1_)" d="M23.865,61.524c-0.555-3.64-1.121-10.068,1.469-13.121
			c0.232-0.273,0.426-0.567,0.67-0.798c4.105-3.873,7.684-0.543,8.656,3.74c0.205,2.715,0.246,5.429,0.123,8.143
			c0.535,0.987,1.398,1.48,2.59,1.48c0.375,0.786,0.283,1.362,0.703,1.876c1.822,2.226,4.52,2.298,6.67,1.709
			c0.859-0.235,1.396-0.772,2.252-1.117c0.576-3.701,0.492-6.95-0.248-9.993c0-0.453-0.154-0.75-0.154-1.203
			c0.248,0.082,0.525,0.093,0.771,0.34c-0.498,1.813,6.316,3.056,14.25,0.863c0.086-0.317-0.066-0.709,0.129-0.821
			c0.275-0.158,0.551-0.192,0.828-0.104c0.041,0.576,0.051,1.152,0.092,1.728c0.193,0.074,1.752,0.048,1.852,0.03
			c-0.566,0.515-1.08,0.505-1.48,0.525c0.133,0-0.078,0.264,0.045,0.291c0.371,0.082,1.064-0.045,1.342,0.078
			c-0.537,0.321-1.148,0.141-1.512,0.494c0.082,1.934,0.135,3.989,0.217,5.922c2.748,1.635,5.627,1.934,8.174-0.37
			c0.434-4.497-0.059-7.891-0.248-11.597c-0.287-0.041-0.574-0.082-0.863-0.124c4.51-6.072,5.379-12.28,1.604-17.89
			c-0.041-0.246-0.205-0.493-0.246-0.74c3.289-0.124,6.672,0.216,9.963,0.092c0.914,0.334,1.83,0.602,2.744,0.771
			c0.971-0.347,1.143-3.032,0.188-2.738c-0.955,0.294-1.469,0.904-2.5,1.288c-3.783,0.004-7.969-0.155-11.752-0.154
			c-5.869-4.658-13.555-6.479-22.207-3.825c2.594,5.292,2.285,10.583,0.646,15.875c-0.219,0.702-3.471,2.771-0.807,0.514
			c2.699-2.287,1.012-18.215-2.307-18.239c-3.516-0.026-6.662,1.085-10.488,4.194c-0.52-0.548-0.475-0.325-0.246-1.11
			c-2.797-0.308-5.594,0.062-8.389,0.74c-1.564,0.165-2.633,0.864-3.209,2.345c-2.096,8.691-3.773,17.363-2.961,27.389
			c0.225,1.069,0.305,2.139,0.863,3.208C22.572,62.847,23.373,62.371,23.865,61.524L23.865,61.524z"/>
		
			<path fill-rule="evenodd" clip-rule="evenodd" fill="#231F20" stroke="#231F20" stroke-width="0.216" stroke-miterlimit="2.4142" d="
			M29.77,31.265c-0.902-0.347-1.725-0.453-2.625-0.364c-0.189,0.018-0.268,0.028-0.385,0.236c-0.064,0.117-0.09,0.255-0.047,0.38
			c0.072,0.214,0.09,0.204,0.275,0.239c0.24,0.045,0.486-0.004,0.729-0.058c0.613-0.358,1.225-0.28,1.836-0.093
			C29.836,31.594,29.855,31.48,29.77,31.265L29.77,31.265z"/>
		
			<path fill-rule="evenodd" clip-rule="evenodd" fill="#231F20" stroke="#231F20" stroke-width="0.216" stroke-miterlimit="2.4142" d="
			M27.748,34.388c0.201-0.399,0.555-0.725,1.25-0.773c0.047-0.32,0.006-0.506-0.402-0.495c-0.613,0.363-1.111,0.732-1.42,1.262
			c-0.244,0.417-0.236,1.023-0.193,1.485c0.033,0.354,0.227,0.64,0.496,0.866c0.541,0.455,1.326,0.236,1.857-0.078
			c0.877-0.52,1.76-1.984,0.215-2.548c-0.488-0.178-1.256,0.032-1.805,0.38C27.717,34.507,27.715,34.456,27.748,34.388
			L27.748,34.388z"/>
		<path fill-rule="evenodd" clip-rule="evenodd" fill="#FFFFFF" d="M28.449,36.089c0.002,0.085,0.023,0.172,0.049,0.267
			c0.018,0.064,0.055,0.105,0.049,0.109c-0.148,0.087-0.328,0.125-0.486,0.053c-0.537-0.246-0.51-1.01-0.223-1.425
			c0.303-0.435,0.865-0.741,1.299-0.719c0.285,0.154,0.371,0.289,0.23,0.324c-0.119,0.03-0.178,0.044-0.256,0.084
			c-0.08,0.04-0.182,0.106-0.236,0.272c0.123,0.041,0.184,0.005,0.307,0.046c0,0.113,0,0.273,0,0.387
			c-0.117-0.052-0.25-0.09-0.393-0.045C28.551,35.517,28.443,35.866,28.449,36.089L28.449,36.089z"/>
		
			<path fill-rule="evenodd" clip-rule="evenodd" fill="#231F20" stroke="#231F20" stroke-width="0.216" stroke-miterlimit="2.4142" d="
			M29.479,46.164c3.184-0.97,4.705-3.463,4.133-6.478c-0.391-0.046-0.793-0.046-1.266-0.339c-0.02-0.165-0.041-0.329-0.061-0.494
			c1.016,0.491,2.463,0.647,2.281-0.925c0.145-0.041,0.35-0.052,0.494-0.093c-0.049,1.095-0.254,1.196-0.926,1.666
			c0.338,2.275-0.172,4.378-2.221,6.57c-0.104,0.288,0.031,0.73,0.094,1.018C31.268,46.265,30.383,46.163,29.479,46.164
			L29.479,46.164z"/>
		
			<path fill-rule="evenodd" clip-rule="evenodd" fill="#8093D0" stroke="#231F20" stroke-width="2.8347" stroke-miterlimit="2.4142" d="
			M68.588,62.846c-0.066-0.936-0.172-1.746-0.201-2.684c-0.064-2.139-1.686-2.604-1.773-0.462c-0.045,1.12,0,2.183,0,3.237
			C67.271,62.979,67.898,63.051,68.588,62.846L68.588,62.846z"/>
		
			<path fill-rule="evenodd" clip-rule="evenodd" fill="#8093D0" stroke="#231F20" stroke-width="2.8347" stroke-miterlimit="2.4142" d="
			M66.645,62.938c-0.133-1.136-0.285-2.107-0.205-3.25c0.141-1.977-1.732-4.06-1.859-0.389c-0.037,1.127-0.012,2.104,0.121,3.207
			C65.277,62.696,65.986,62.83,66.645,62.938L66.645,62.938z"/>
		
			<path fill-rule="evenodd" clip-rule="evenodd" fill="#8093D0" stroke="#231F20" stroke-width="2.8347" stroke-miterlimit="2.4142" d="
			M64.701,62.691l-0.27-4.195c-0.189-3.138-1.447-2.772-1.553-0.185c-0.051,1.224,0.049,1.892-0.059,3.115
			C63.406,61.828,64.033,62.619,64.701,62.691L64.701,62.691z"/>
		
			<path fill-rule="evenodd" clip-rule="evenodd" fill="#8093D0" stroke="#231F20" stroke-width="2.8347" stroke-miterlimit="2.4142" d="
			M43.172,64.851c0.053-1.151-0.039-1.861-0.152-2.931c-0.535-2.262-1.193-2.549-1.975-0.863c0,1.398,0,2.365,0,3.763
			C41.754,64.881,42.463,64.953,43.172,64.851L43.172,64.851z"/>
		
			<path fill-rule="evenodd" clip-rule="evenodd" fill="#8093D0" stroke="#231F20" stroke-width="2.8347" stroke-miterlimit="2.4142" d="
			M39.287,64.233c0.01-1.449,0.02-2.405,0.029-3.855c0.535-2.128,1.07-1.912,1.605,0.647c0.01,1.378,0.02,2.263,0.029,3.64
			C40.396,64.6,39.842,64.551,39.287,64.233L39.287,64.233z"/>
		
			<path fill-rule="evenodd" clip-rule="evenodd" fill="#8093D0" stroke="#231F20" stroke-width="2.8347" stroke-miterlimit="2.4142" d="
			M37.344,61.396c0.072-1.213,0.328-2.426,0.4-3.64c-0.492-2.395-1.027-2.816-1.604-1.264c-0.021,1.552-0.041,3.104-0.063,4.657
			C36.531,61.355,36.809,61.52,37.344,61.396L37.344,61.396z"/>
		
			<path fill-rule="evenodd" clip-rule="evenodd" fill="#8093D0" stroke="#231F20" stroke-width="2.8347" stroke-miterlimit="2.4142" d="
			M60.846,60.995c0.104-1.284-0.033-2.356-0.004-3.613c0.035-1.53,1.547-1.085,1.615,0.319c0.07,1.408,0.141,2.121,0.209,3.51
			C61.992,61.236,61.438,61.305,60.846,60.995L60.846,60.995z"/>
		
			<path fill-rule="evenodd" clip-rule="evenodd" fill="#B9C5EA" stroke="#231F20" stroke-width="2.8347" stroke-miterlimit="2.4142" d="
			M60.754,61.057c-0.041-0.945-0.021-2.077-0.063-3.022c0.094-1.3-0.809-3.212-1.156-1.079c-0.15,0.925-0.133,1.438-0.199,2.375
			C59.674,59.762,60.26,60.687,60.754,61.057L60.754,61.057z"/>
		<path fill-rule="evenodd" clip-rule="evenodd" fill="#231F20" d="M49.527,43.696c0.637-3.063,1.273-6.127,1.912-9.191
			c0.102-0.72,0.285-1.358,1.049-1.418c0.309,0,0.617,0,0.924,0c0.557,0,0.865,0.329,0.926,0.987
			c-0.061,0.453-0.123,0.905-0.186,1.357c0.021,0.555,0.371,0.863,1.049,0.925c0.926,0.041,1.852,0.082,2.777,0.124
			c1.387,0.082,2.313,0.678,2.221,2.405c-0.289,1.522-0.576,3.044-0.863,4.565c-0.145,0.884-0.535,1.377-1.174,1.604
			c-0.41-0.021-0.883,0.021-1.295,0c-0.721,0.041-1.133-0.226-0.863-1.172c0.268-1.193,0.596-2.694,0.863-3.887
			c0.105-1.422-0.432-1.503-0.986-1.604c-0.473-0.062-0.947,0-1.42-0.062c-0.699,0.101-0.967,0.78-1.172,1.542
			c-0.309,1.274-0.617,2.55-0.924,3.824c-0.145,0.699-0.289,1.151-0.803,1.357c-0.514,0-1.029,0-1.543,0
			C49.445,44.931,49.279,44.478,49.527,43.696L49.527,43.696z"/>
		<path fill-rule="evenodd" clip-rule="evenodd" fill="#231F20" d="M37.627,47.246c0.637-3.26,1.271-6.52,1.906-9.78
			c-0.063-0.637,0.514-1.131,1.109-1.11c1.934,0,3.867,0,5.799,0c1.234,0.062,2.236,0.557,2.73,1.538
			c0.408,0.813,0.531,1.376,0.469,2.31c-0.1,1.496-0.85,2.732-1.719,3.616c-0.986,0.74-1.85,1.152-2.836,1.234
			c-0.988,0.021-1.975,0.041-2.961,0.062c-0.572-0.046-1.139,0.104-1.271,0.555c-0.182,0.614-0.303,1.228-0.484,1.842
			c-0.074,0.252-0.324,0.424-0.65,0.563c-0.57,0.008-1.143,0.016-1.713,0.024C37.4,48.108,37.531,47.743,37.627,47.246
			L37.627,47.246z M41.672,41.649c0.158-0.862,0.359-1.824,0.514-2.58c0.227-0.453,0.555-0.783,1.111-0.74
			c0.654-0.014,1.191,0.008,1.766,0.227c1.117,0.427,1.416,1.629,0.947,2.672c-0.596,0.946-1.172,1.439-2.096,1.727
			c-0.459,0.098-0.869,0.164-1.266,0.124C41.559,42.97,41.482,42.679,41.672,41.649L41.672,41.649z"/>
		<path fill-rule="evenodd" clip-rule="evenodd" fill="#231F20" d="M59.65,47.246c0.635-3.26,1.27-6.52,1.906-9.78
			c-0.063-0.637,0.514-1.131,1.109-1.11c1.934,0,3.865,0,5.799,0c1.234,0.062,2.234,0.557,2.729,1.538
			c0.41,0.813,0.531,1.376,0.471,2.31c-0.1,1.496-0.852,2.732-1.719,3.616c-0.988,0.74-1.852,1.152-2.838,1.234
			c-0.986,0.021-1.975,0.041-2.961,0.062c-0.57-0.046-1.137,0.104-1.27,0.555c-0.184,0.614-0.303,1.228-0.484,1.842
			c-0.076,0.252-0.324,0.424-0.652,0.563c-0.57,0.008-1.141,0.016-1.711,0.024C59.422,48.108,59.553,47.743,59.65,47.246
			L59.65,47.246z M63.693,41.649c0.158-0.862,0.361-1.824,0.516-2.58c0.225-0.453,0.553-0.783,1.109-0.74
			c0.656-0.014,1.193,0.008,1.766,0.227c1.117,0.427,1.416,1.629,0.949,2.672c-0.596,0.946-1.172,1.439-2.098,1.727
			c-0.457,0.098-0.867,0.164-1.266,0.124C63.582,42.97,63.504,42.679,63.693,41.649L63.693,41.649z"/>
		<path fill-rule="evenodd" clip-rule="evenodd" fill="#EBEFFF" d="M22.322,62.079c-0.324-0.301-0.557-0.64-0.742-0.976
			c-0.363-0.655-0.391-1.073-0.434-1.814c-0.637-10.947-0.078-20.515,3.414-28.339c0.428-0.962,0.504-1.249,1.389-1.685
			c2.115-1.041,5.35-1.187,8.525-0.991c0.082-0.247,0.268-0.493,0.186-0.74c-2.551-0.255-5.223,0.039-7.773,0.617
			c-1.729,0.276-3.416,0.581-3.824,3.331c-3.49,9.227-3.232,17.973-2.873,26.559c0.029,0.709,0.066,1.146,0.279,1.831
			C21.145,62.037,21.805,61.968,22.322,62.079L22.322,62.079z"/>
		<path fill-rule="evenodd" clip-rule="evenodd" fill="#EBEFFF" d="M35.709,60.723c0-2.283-0.186-4.565-0.186-6.848
			c-0.32-1.438-0.207-2.675-0.848-3.821c-0.65-1.165-1.143-1.759-1.742-2.533c1.809,2.817,2.385,6.868,1.727,12.153
			C35.029,60.023,35.338,60.373,35.709,60.723L35.709,60.723z"/>
		
			<path fill-rule="evenodd" clip-rule="evenodd" fill="none" stroke="#231F20" stroke-width="2.8347" stroke-miterlimit="2.4142" d="
			M34.197,59.669c0.092-1.737-0.063-3.104,0.031-4.843c0.627,0.095,1.305,0.388,1.604,1.388c-0.021,1.707-0.041,3.044-0.063,4.75
			C35.205,60.748,34.762,60.378,34.197,59.669L34.197,59.669z"/>
		<path fill-rule="evenodd" clip-rule="evenodd" fill="#EBEFFF" d="M39.162,63.93c-0.492-0.185-0.904-0.534-1.232-1.049
			c-0.082-4.07-0.164-8.143-0.246-12.214c0.205,0.206,0.41,0.412,0.615,0.617c0.145,0.863,0.207,1.728,0.186,2.591
			c0.063,0.164,0.123,0.329,0.186,0.494C38.59,57.556,38.902,60.743,39.162,63.93L39.162,63.93z"/>
		
			<path fill-rule="evenodd" clip-rule="evenodd" fill="none" stroke="#231F20" stroke-width="2.8347" stroke-miterlimit="2.4142" d="
			M37.652,63.246c0.01-1.377,0.02-2.755,0.031-4.133c0.658-1.178,1.275-1.83,1.604,1.203c-0.012,1.439-0.021,2.879-0.031,4.318
			C38.598,64.419,38.063,63.956,37.652,63.246L37.652,63.246z"/>
		
			<path fill-rule="evenodd" clip-rule="evenodd" fill="#231F20" stroke="#231F20" stroke-width="0.216" stroke-miterlimit="2.4142" d="
			M34.875,50.112c0.041-0.206-0.051-0.411-0.092-0.617c0.104,0.021,0.205,0.041,0.309,0.062c0.535,0.432,1.068,0.864,1.604,1.295
			c0.246-0.124,0.412-0.288,0.494-0.493c0.184,0,0.422,0.082,0.523,0.247c0.021,1.028-0.051,2.057-0.029,3.084
			c0.184,0.186,0.287,0.371,0.307,0.556c0.658-0.005,1.316,0.108,1.975,0.185c0.041,0.165,0.082,0.268,0.123,0.432
			c-0.801-0.062-1.584-0.103-2.221,0c0,0.145,0,0.319,0,0.463c0.412-0.062,0.986,0.021,1.729,0.124
			c0.02,0.144,0.041,0.195,0.061,0.339c-0.617-0.062-1.234-0.072-1.85,0.031c0.074,2.549,0.104,5.068,0,7.618
			c-0.207-0.473-0.598-0.946-0.803-1.419c0.449-3.249,0.365-6.56,0.154-9.809C36.637,51.325,35.756,50.667,34.875,50.112
			L34.875,50.112z"/>
		<path fill-rule="evenodd" clip-rule="evenodd" fill="#EBEFFF" d="M36.387,27.658c1.57-0.483,1.551-0.112,3.227-1.11
			c1.813-1.08,4.131-1.696,6.396-1.851c-0.781-0.411-1.85-0.494-2.961-0.247C39.902,25.375,37.889,26.403,36.387,27.658
			L36.387,27.658z"/>
		<path fill-rule="evenodd" clip-rule="evenodd" fill="#EBEFFF" d="M48.725,26.301c5.469-1.563,10.939-1.316,16.408,0.74
			c-4.398-1.966-9.313-2.768-16.346-1.11C48.787,26.177,48.725,26.054,48.725,26.301L48.725,26.301z"/>
	</g>
</g>
</svg>
