<?xml version="1.0" encoding="utf-8"?>
<!-- Generator: Adobe Illustrator 16.0.0, SVG Export Plug-In . SVG Version: 6.00 Build 0)  -->
<!DOCTYPE svg PUBLIC "-//W3C//DTD SVG 1.1//EN" "http://www.w3.org/Graphics/SVG/1.1/DTD/svg11.dtd">
<svg version="1.1" id="Calque_1" xmlns="http://www.w3.org/2000/svg" xmlns:xlink="http://www.w3.org/1999/xlink" x="0px" y="0px"
	 width="100px" height="100px" viewBox="0 0 100 100" enable-background="new 0 0 100 100" xml:space="preserve">
<path fill="#CF649A" d="M86.085,57.423c-3.498,0.026-6.525,1.146-9.064,2.814c-0.938-2.476-1.875-4.639-2.031-6.254
	c-0.176-1.876-0.391-3.023-0.176-5.264c0.215-2.242,1.191-5.421,1.191-5.681c-0.02-0.235-0.215-1.381-2.227-1.407
	s-3.75,0.521-3.945,1.225c-0.195,0.703-0.586,2.319-0.84,3.986c-0.352,2.45-4.023,11.128-6.113,15.688
	c-0.684-1.772-1.27-3.335-1.389-4.587c-0.176-1.875-0.391-3.022-0.176-5.264c0.217-2.24,1.193-5.42,1.193-5.68
	c-0.02-0.235-0.215-1.381-2.227-1.407c-2.014-0.026-3.752,0.521-3.947,1.225s-0.41,2.372-0.84,3.987
	c-0.41,1.616-5.292,16.104-6.562,19.883c-0.646,1.929-1.211,3.466-1.622,4.509c-0.41,1.042-0.02,0.078-0.059,0.182
	c-0.352,0.887-0.547,1.381-0.547,1.381v0.027c-0.273,0.65-0.566,1.276-0.703,1.276c-0.098,0-0.293-1.746,0.039-4.144
	c0.723-5.029,2.48-12.873,2.461-13.159c0-0.13,0.332-1.512-1.133-2.216c-1.426-0.703-1.934,0.47-2.051,0.47
	s-0.215,0.417-0.215,0.417s1.582-8.834-3.027-8.834c-2.892,0-6.876,4.195-8.849,8.026c-1.25,0.912-3.906,2.84-6.72,4.899
	c-1.074,0.781-2.188,1.615-3.242,2.371l-0.215-0.313C17.466,57.631,7.133,52.002,7.563,41.318
	c0.156-3.883,1.172-14.124,19.846-26.527c15.294-10.163,27.541-7.375,29.669-1.173c3.027,8.86-6.543,25.329-22.443,27.7
	c-6.055,0.912-9.239-2.215-10.039-3.388c-0.841-1.225-0.958-1.276-1.271-1.042c-0.508,0.365-0.195,1.459,0,2.11
	c0.469,1.642,2.423,4.561,5.743,6.02c2.91,1.277,10.021,1.98,18.615-2.45c9.628-4.977,17.15-18.788,14.943-30.332
	C60.38,0.484,45.769-3.372,31.959,3.168C23.735,7.077,14.828,13.175,8.422,21.175c-7.618,9.485-8.829,17.772-8.321,21.211
	C1.879,54.66,14.555,62.66,19.634,68.576c-0.254,0.182-0.488,0.364-0.703,0.521c-2.54,1.667-12.208,8.416-14.63,15.557
	C1.565,92.732,4.73,98.543,6.84,99.325c6.523,2.423,13.204-1.928,16.817-9.095c3.594-7.166,3.165-16.469,1.504-20.717l-0.059-0.156
	l1.992-1.563c1.29-1.017,2.56-1.954,3.673-2.763c-0.625,2.268-1.074,4.951-1.309,8.86c-0.273,4.587,1.133,10.528,2.988,12.873
	c0.82,1.017,1.797,1.042,2.402,1.042c2.148,0,3.125-2.371,4.2-5.211c1.328-3.467,2.5-7.479,2.5-7.479s-1.465,10.866,2.539,10.866
	c1.465,0,2.93-2.527,3.594-3.83v0.025c0,0,0.039-0.078,0.117-0.26c0.082-0.162,0.16-0.327,0.234-0.495v-0.052
	c0.586-1.355,1.896-4.456,3.848-9.59c2.52-6.619,4.941-14.906,4.941-14.906s0.234,2.033,0.957,5.369
	c0.43,1.98,1.367,4.143,2.09,6.254c-0.586,1.094-0.938,1.72-0.938,1.72l0.02,0.026c-0.469,0.834-0.996,1.72-1.543,2.605
	c-1.992,3.18-4.375,6.802-4.688,7.844c-0.371,1.225-0.293,2.137,0.43,2.867c0.527,0.521,1.465,0.625,2.461,0.521
	c1.797-0.157,3.047-0.756,3.672-1.121c0.977-0.469,2.09-1.173,3.166-2.215c1.953-1.929,3.145-4.664,3.027-8.313
	c-0.059-2.007-0.547-3.987-1.152-5.863c0.176-0.339,0.352-0.678,0.527-1.043c3.086-6.02,5.469-12.639,5.469-12.639
	s0.234,2.033,0.957,5.369c0.371,1.693,1.113,3.544,1.777,5.367c-2.891,3.154-4.707,6.802-5.332,9.199
	c-1.152,4.43-0.254,6.437,1.445,6.906c0.762,0.208,1.855-0.262,2.676-0.73c1.016-0.443,2.246-1.199,3.379-2.318
	c1.953-1.929,3.828-4.613,3.73-8.235c-0.059-1.667-0.391-3.31-0.84-4.873c2.461-1.354,5.645-2.137,9.689-1.485
	c8.691,1.355,10.41,8.6,10.078,11.623c-0.332,3.022-2.148,4.689-2.754,5.211c-0.605,0.495-0.801,0.678-0.742,1.043
	c0.078,0.547,0.352,0.521,0.879,0.417c0.723-0.157,4.57-2.476,4.727-8.052C100.226,65.162,95.128,57.345,86.085,57.423
	L86.085,57.423z M19.048,87.572c-2.872,4.195-6.915,5.785-8.634,4.431c-1.855-1.434-1.133-7.609,2.402-12.065
	c2.148-2.71,4.942-5.212,6.778-6.749c0.41-0.339,1.035-0.834,1.777-1.434c0.117-0.104,0.195-0.156,0.195-0.156
	c0.137-0.104,0.293-0.234,0.449-0.364C23.325,77.592,22.075,83.169,19.048,87.572z M40.046,68.523
	c-0.996,3.258-3.106,11.623-4.376,11.153c-1.094-0.391-1.758-6.723-0.215-12.978c0.781-3.152,2.441-6.905,3.418-8.365
	c1.583-2.345,3.302-3.127,3.731-2.162C43.112,57.423,40.671,66.491,40.046,68.523z M57.371,79.572
	c-0.43,0.287-0.82,0.496-0.996,0.34c-0.137-0.104,0.176-0.496,0.176-0.496s2.168-3.101,3.027-4.533
	c0.488-0.834,1.074-1.799,1.699-2.893v0.313C61.277,76.055,58.582,78.557,57.371,79.572L57.371,79.572z M70.732,75.508
	c-0.313-0.313-0.273-1.277,0.781-4.3c0.41-1.198,1.348-3.205,2.969-5.107c0.195,0.781,0.313,1.537,0.293,2.241
	C74.755,73.032,72.255,74.777,70.732,75.508z"/>
</svg>
