<?xml version="1.0" encoding="utf-8"?>
<!-- Generator: Adobe Illustrator 16.0.0, SVG Export Plug-In . SVG Version: 6.00 Build 0)  -->
<!DOCTYPE svg PUBLIC "-//W3C//DTD SVG 1.1//EN" "http://www.w3.org/Graphics/SVG/1.1/DTD/svg11.dtd">
<svg version="1.1" id="Calque_1" xmlns="http://www.w3.org/2000/svg" xmlns:xlink="http://www.w3.org/1999/xlink" x="0px" y="0px"
	 width="100px" height="100px" viewBox="0 0 100 100" enable-background="new 0 0 100 100" xml:space="preserve">
<g>
	<polygon fill="#E5A229" points="100,0 50,0 50,0 0,0 9.37,89.822 50,100 50,100 50,100 50,100 50,100 90.615,89.822 	"/>
	<polygon fill="#F1BE21" points="50,7.317 50,92.393 50,92.393 82.901,84.152 90.913,7.317 	"/>
	<polygon fill="#FFFFFF" points="76.177,18.339 25.57,18.339 22.054,51.971 22.128,51.76 65.114,51.76 63.712,65.985 50,69.479 
		36.079,65.934 35.243,57.324 22.604,57.324 24.411,74.528 50,80.949 75.589,74.528 79.111,40.765 33.497,40.765 34.079,29.506 
		65.739,29.506 66.204,35.95 78.956,35.95 	"/>
	<g>
		<path fill="#EBEAEA" d="M50,18.339H25.57l-3.517,33.632l0.074-0.211H50V40.765H35.258l0.581-11.259H50V18.339z M35.243,57.324
			H22.604l1.807,17.204L50,80.936V69.479l-13.921-3.545L35.243,57.324z"/>
	</g>
</g>
</svg>
