<?xml version="1.0" encoding="utf-8"?>
<!-- Generator: Adobe Illustrator 16.0.0, SVG Export Plug-In . SVG Version: 6.00 Build 0)  -->
<!DOCTYPE svg PUBLIC "-//W3C//DTD SVG 1.1//EN" "http://www.w3.org/Graphics/SVG/1.1/DTD/svg11.dtd">
<svg version="1.1" id="Calque_1" xmlns="http://www.w3.org/2000/svg" xmlns:xlink="http://www.w3.org/1999/xlink" x="0px" y="0px"
	 width="100px" height="100px" viewBox="0 0 100 100" enable-background="new 0 0 100 100" xml:space="preserve">
<g>
	<circle fill="#1A171B" cx="50" cy="50" r="50"/>
	<path fill="#FFFFFF" d="M71.86,18.5c-5.079,0.178-9.515,2.977-12.813,6.85c-3.654,4.246-6.086,9.282-7.837,14.423
		c-3.134-2.568-5.552-5.893-10.578-7.343c-3.887-1.115-7.967-0.654-11.719,2.142c-1.778,1.328-3.003,3.335-3.587,5.223
		c-1.507,4.904,1.586,9.268,2.991,10.835l3.072,3.292c0.634,0.646,2.157,2.329,1.413,4.744c-0.806,2.625-3.971,4.324-7.218,3.323
		c-1.448-0.442-3.532-1.522-3.064-3.044c0.192-0.621,0.638-1.088,0.877-1.625c0.219-0.461,0.322-0.808,0.389-1.012
		c0.594-1.937-0.217-4.455-2.29-5.095c-1.935-0.593-3.915-0.123-4.682,2.368c-0.87,2.83,0.484,7.967,7.738,10.203
		c8.499,2.612,15.689-2.018,16.709-8.053c0.643-3.781-1.064-6.589-4.191-10.202l-2.549-2.817c-1.543-1.542-2.072-4.17-0.475-6.19
		c1.348-1.704,3.266-2.431,6.41-1.576c4.59,1.247,6.637,4.431,10.05,6.999c-1.409,4.623-2.33,9.263-3.164,13.423l-0.508,3.104
		c-2.44,12.799-4.304,19.828-9.145,23.863c-0.975,0.691-2.37,1.731-4.472,1.804c-1.102,0.033-1.456-0.724-1.471-1.055
		c-0.027-0.773,0.625-1.127,1.058-1.475c0.646-0.354,1.626-0.938,1.56-2.813c-0.072-2.216-1.907-4.137-4.559-4.05
		c-1.988,0.069-5.018,1.939-4.903,5.362c0.119,3.535,3.414,6.187,8.382,6.018c2.657-0.092,8.588-1.174,14.434-8.121
		c6.804-7.965,8.705-17.096,10.138-23.778l1.597-8.824c0.887,0.107,1.837,0.177,2.869,0.203c8.473,0.178,12.711-4.211,12.774-7.403
		c0.04-1.932-1.269-3.833-3.101-3.79c-1.314,0.038-2.961,0.91-3.358,2.725c-0.387,1.781,2.696,3.388,0.287,4.949
		c-1.712,1.107-4.781,1.888-9.103,1.253l0.786-4.343c1.604-8.236,3.582-18.366,11.086-18.613c0.548-0.027,2.549,0.025,2.594,1.348
		c0.016,0.442-0.095,0.554-0.612,1.567c-0.527,0.788-0.727,1.461-0.701,2.232c0.072,2.103,1.672,3.484,3.984,3.402
		c3.096-0.101,3.986-3.116,3.936-4.664C80.77,20.633,76.937,18.335,71.86,18.5z"/>
</g>
</svg>
