<?xml version="1.0" encoding="utf-8"?>
<!-- Generator: Adobe Illustrator 16.0.0, SVG Export Plug-In . SVG Version: 6.00 Build 0)  -->
<!DOCTYPE svg PUBLIC "-//W3C//DTD SVG 1.1//EN" "http://www.w3.org/Graphics/SVG/1.1/DTD/svg11.dtd">
<svg version="1.1" id="Calque_1" xmlns="http://www.w3.org/2000/svg" xmlns:xlink="http://www.w3.org/1999/xlink" x="0px" y="0px"
	 width="100px" height="100px" viewBox="0 0 100 100" enable-background="new 0 0 100 100" xml:space="preserve">
<g>
	
		<radialGradient id="SVGID_1_" cx="-78.2686" cy="3703.998" r="0.4424" gradientTransform="matrix(157.5607 0 0 -156.4586 12366.25 579547.25)" gradientUnits="userSpaceOnUse">
		<stop  offset="0" style="stop-color:#34364E;stop-opacity:0.98"/>
		<stop  offset="1" style="stop-color:#0C0824"/>
	</radialGradient>
	<path fill="url(#SVGID_1_)" d="M4.166,4.273h91.667v91.453H4.166V4.273z"/>
	<path fill="#31C5F0" d="M4.166,4.273h91.667v91.453H4.166V4.273z M0,100h100V0H0V100z M67.416,41.025
		c-3.291,0-4.416,1.709-4.416,3.12c0,1.539,0.75,2.607,5.166,4.958c6.542,3.248,8.584,6.367,8.584,10.94
		c0,6.837-5.084,10.513-11.959,10.513c-3.625,0-6.75-0.77-8.541-1.838c-0.292-0.128-0.334-0.342-0.334-0.684v-6.282
		c0-0.428,0.209-0.556,0.5-0.342c2.625,1.752,5.625,2.521,8.375,2.521c3.292,0,4.667-1.41,4.667-3.334
		c0-1.538-0.958-2.905-5.167-5.128c-5.916-2.905-8.375-5.854-8.375-10.769c0-5.513,4.209-10.085,11.5-10.085
		c3.584,0,6.084,0.556,7.459,1.197c0.332,0.213,0.416,0.555,0.416,0.854v5.854c0,0.342-0.208,0.556-0.625,0.427
		C72.833,41.752,70.125,41.025,67.416,41.025L67.416,41.025z M31.582,46.111c0.959,0.085,1.709,0.085,3.376,0.085
		c4.875,0,9.458-1.752,9.458-8.547c0-5.427-3.291-8.162-8.833-8.162c-1.667,0-3.25,0.085-4.001,0.128V46.111z M24.166,23.419
		c0-0.299,0.584-0.513,0.916-0.513c2.668-0.128,6.626-0.213,10.751-0.213c11.542,0,16.042,6.496,16.042,14.786
		c0,10.854-7.667,15.513-17.084,15.513c-1.583,0-2.125-0.085-3.25-0.085v16.41c0,0.342-0.125,0.513-0.5,0.513h-6.375
		c-0.333,0-0.5-0.128-0.5-0.513V23.419L24.166,23.419z"/>
</g>
</svg>
