<?xml version="1.0" encoding="utf-8"?>
<!-- Generator: Adobe Illustrator 16.0.0, SVG Export Plug-In . SVG Version: 6.00 Build 0)  -->
<!DOCTYPE svg PUBLIC "-//W3C//DTD SVG 1.1//EN" "http://www.w3.org/Graphics/SVG/1.1/DTD/svg11.dtd">
<svg version="1.1" id="Calque_1" xmlns="http://www.w3.org/2000/svg" xmlns:xlink="http://www.w3.org/1999/xlink" x="0px" y="0px"
	 width="1700px" height="7000px" viewBox="0 0 1700 7000" enable-background="new 0 0 1700 7000" xml:space="preserve">
<g>
	<g>
		<g>
			<polygon fill="#5868A4" points="924.915,1025.209 612.29,1025.209 612.29,1025.209 299.665,1025.209 358.258,1586.823 
				612.29,1650.459 612.29,1650.459 612.29,1650.459 612.29,1650.459 612.29,1650.459 866.236,1586.823 			"/>
			<polygon fill="#8799CB" points="612.29,1070.958 612.29,1602.896 612.29,1602.896 818.012,1551.372 868.105,1070.958 			"/>
		</g>
	</g>
	<g>
		
			<path fill-rule="evenodd" clip-rule="evenodd" fill="#231F20" stroke="#231F20" stroke-width="0.216" stroke-miterlimit="2.4142" d="
			M600.847,1368.235c1.16,13.425,1.05,35.274-0.696,48.362c-0.879,6.644-2.796,8.015-6.778,10.97
			c-12.859,9.531-55.857,11.781-61.182-8.417c-1.99-0.062-0.366-6.609-2.284-6.417c-4.836,0.481-14.117-3.987-18.55-11.327
			c0.061-22.106,2.552-101.951-36.99-80.482c-9.196,4.988-13.86,11.812-18.013,22.042c-2.894,7.142-3.395,15.943-3.676,25.383
			c-0.33,11.021,2.442,23.081,2.821,36.297c0.159,5.929,1.124,7.434-3.272,12.459c-7.083,8.105-19.466,1.246-26.17-7.639
			c-3.053-4.048-4.115-10.02-4.481-14.923c-4.311-57.105-1.026-116.574,15.509-172.103c5.642-18.946,7.633-21.713,25.657-26.011
			c19.698-4.696,43.218-5.584,62.501-3.688c16.229-5.257,54.758-33.849,71.354-11.183c51.363-9.211,102.727-3.884,147.923,26.997
			c21.591,1.924,44.158,1.808,65.761,1.157c3.139-1.963,6.667-4.058,9.879-5.883c2.503-1.42,4.592-2.751,7.657-3.23
			c3.554-0.562,8.17-0.718,9.184,3.664c0.892,3.868,1.233,8.792,0.904,13.766c-0.306,4.802-4.055,11.323-9.879,11.741
			c-5.667-1.475-12.09-2.25-17.744-5.785c-20.064,0.513-32.398-0.516-52.462,0c3.236,3.444,3.041,5.728,5.446,10.322
			c15.668,30.002,0.94,80.929-12.004,92.273c-1.429,22.979,0.293,46.246,0.464,69.309c0.049,7.989,0.647,15.543-6.851,20.8
			c-11.04,7.742-30.297,9.501-44.256,3.676c-4.274-1.783-7.168-5.672-10.294-8.542c-2.968-0.079-5.508,0.729-7.718,0.119
			c-4.457-1.239-8.133-4.015-10.648-7.813c-1.563-2.357-2.32-5.104-3.615-8.121c0-10.802-0.391-15.045-0.391-25.844
			C645.592,1373.188,623.22,1374.473,600.847,1368.235L600.847,1368.235z"/>
		
			<path fill-rule="evenodd" clip-rule="evenodd" fill="#6978AB" stroke="#231F20" stroke-width="0.216" stroke-miterlimit="2.4142" d="
			M673.167,1367.659c4.885-0.514,9.77-1.35,14.654-2.895c3.041,12.779,2.369,28.002,2.125,42.427
			c-7.779,0.192-13.885-3.215-17.548-10.218C671.554,1387.329,671.945,1377.3,673.167,1367.659L673.167,1367.659z"/>
		
			<linearGradient id="SVGID_1_" gradientUnits="userSpaceOnUse" x1="338.561" y1="1595.1929" x2="594.9947" y2="1911.8621" gradientTransform="matrix(1 0 0 1 161.5225 -449.1553)">
			<stop  offset="0" style="stop-color:#8A9FE0"/>
			<stop  offset="1" style="stop-color:#576490"/>
		</linearGradient>
		<path fill-rule="evenodd" clip-rule="evenodd" fill="url(#SVGID_1_)" d="M448.882,1409.894
			c-3.468-22.754-7.01-62.952,9.184-82.036c1.453-1.707,2.662-3.545,4.188-4.992c25.669-24.213,48.042-3.397,54.123,23.386
			c1.282,16.972,1.539,33.943,0.77,50.915c3.346,6.17,8.744,9.257,16.193,9.257c2.345,4.912,1.771,8.515,4.396,11.726
			c11.394,13.916,28.258,14.368,41.704,10.686c5.373-1.472,8.731-4.826,14.08-6.985c3.603-23.141,3.078-43.456-1.551-62.481
			c0-2.83-0.965-4.692-0.965-7.522c1.551,0.516,3.285,0.58,4.824,2.121c-3.114,11.339,39.494,19.109,89.098,5.401
			c0.538-1.984-0.415-4.434,0.806-5.136c1.722-0.989,3.444-1.202,5.178-0.65c0.256,3.6,0.317,7.199,0.574,10.799
			c1.209,0.464,10.954,0.296,11.577,0.192c-3.542,3.215-6.753,3.153-9.256,3.278c0.83,0-0.489,1.652,0.281,1.823
			c2.32,0.516,6.655-0.278,8.39,0.491c-3.358,2.006-7.181,0.876-9.452,3.087c0.513,12.087,0.843,24.942,1.355,37.026
			c17.182,10.225,35.183,12.093,51.107-2.314c2.711-28.114-0.366-49.336-1.551-72.511c-1.795-0.257-3.59-0.513-5.398-0.772
			c28.197-37.967,33.632-76.782,10.026-111.855c-0.256-1.538-1.282-3.083-1.539-4.625c20.565-0.772,41.716,1.35,62.293,0.577
			c5.715,2.091,11.443,3.761,17.158,4.823c6.069-2.167,7.144-18.956,1.172-17.118c-5.972,1.842-9.183,5.651-15.631,8.051
			c-23.654,0.024-49.824-0.968-73.479-0.961c-36.697-29.123-84.75-40.511-138.849-23.914c16.217,33.085,14.288,66.17,4.042,99.258
			c-1.368,4.388-21.701,17.329-5.043,3.212c16.877-14.3,6.326-113.889-14.422-114.041c-21.981-0.165-41.655,6.784-65.578,26.226
			c-3.248-3.426-2.967-2.033-1.539-6.942c-17.487-1.927-34.975,0.384-52.45,4.628c-9.782,1.032-16.462,5.403-20.064,14.66
			c-13.104,54.343-23.594,108.562-18.514,171.248c1.405,6.686,1.905,13.372,5.398,20.058
			C440.798,1418.161,445.805,1415.188,448.882,1409.894L448.882,1409.894z"/>
		
			<path fill-rule="evenodd" clip-rule="evenodd" fill="#231F20" stroke="#231F20" stroke-width="0.216" stroke-miterlimit="2.4142" d="
			M485.799,1220.694c-5.642-2.168-10.783-2.83-16.413-2.277c-1.185,0.113-1.673,0.174-2.406,1.478
			c-0.403,0.732-0.562,1.594-0.293,2.375c0.452,1.341,0.562,1.273,1.722,1.493c1.502,0.284,3.041-0.024,4.555-0.363
			c3.834-2.238,7.657-1.753,11.479-0.58C486.214,1222.755,486.336,1222.044,485.799,1220.694L485.799,1220.694z"/>
		
			<path fill-rule="evenodd" clip-rule="evenodd" fill="#231F20" stroke="#231F20" stroke-width="0.216" stroke-miterlimit="2.4142" d="
			M473.16,1240.225c1.258-2.494,3.468-4.534,7.815-4.836c0.293-2,0.037-3.163-2.516-3.093c-3.834,2.269-6.948,4.576-8.878,7.892
			c-1.526,2.604-1.478,6.399-1.209,9.287c0.208,2.214,1.417,4,3.102,5.413c3.382,2.843,8.292,1.475,11.613-0.488
			c5.483-3.248,11.003-12.404,1.343-15.931c-3.053-1.111-7.852,0.201-11.284,2.378
			C472.964,1240.966,472.952,1240.646,473.16,1240.225L473.16,1240.225z"/>
		<path fill-rule="evenodd" clip-rule="evenodd" fill="#FFFFFF" d="M477.543,1250.857c0.012,0.535,0.147,1.075,0.306,1.667
			c0.11,0.403,0.342,0.66,0.305,0.685c-0.928,0.546-2.052,0.781-3.041,0.329c-3.358-1.535-3.187-6.313-1.392-8.911
			c1.893-2.718,5.41-4.635,8.121-4.497c1.783,0.965,2.32,1.808,1.441,2.027c-0.745,0.188-1.111,0.277-1.6,0.527
			c-0.501,0.251-1.136,0.666-1.478,1.698c0.769,0.259,1.148,0.033,1.917,0.29c0,0.708,0,1.709,0,2.418
			c-0.732-0.324-1.563-0.565-2.455-0.281C478.179,1247.283,477.507,1249.463,477.543,1250.857L477.543,1250.857z"/>
		
			<path fill-rule="evenodd" clip-rule="evenodd" fill="#231F20" stroke="#231F20" stroke-width="0.216" stroke-miterlimit="2.4142" d="
			M483.979,1313.854c19.905-6.063,29.418-21.652,25.84-40.501c-2.442-0.287-4.958-0.287-7.914-2.119
			c-0.122-1.032-0.256-2.058-0.378-3.09c6.35,3.071,15.399,4.049,14.264-5.782c0.904-0.256,2.186-0.323,3.089-0.58
			c-0.305,6.845-1.587,7.479-5.788,10.414c2.112,14.227-1.075,27.376-13.885,41.078c-0.647,1.801,0.195,4.563,0.586,6.365
			C495.166,1314.482,489.633,1313.847,483.979,1313.854L483.979,1313.854z"/>
		
			<path fill-rule="evenodd" clip-rule="evenodd" fill="#8093D0" stroke="#231F20" stroke-width="2.8346" stroke-miterlimit="2.4142" d="
			M728.511,1418.155c-0.415-5.85-1.075-10.918-1.258-16.779c-0.403-13.369-10.539-16.281-11.088-2.889
			c-0.281,7.004,0,13.645,0,20.245C720.28,1418.991,724.2,1419.44,728.511,1418.155L728.511,1418.155z"/>
		
			<path fill-rule="evenodd" clip-rule="evenodd" fill="#8093D0" stroke="#231F20" stroke-width="2.8346" stroke-miterlimit="2.4142" d="
			M716.36,1418.732c-0.831-7.104-1.783-13.177-1.282-20.327c0.879-12.355-10.832-25.38-11.625-2.424
			c-0.232,7.043-0.074,13.155,0.757,20.052C707.812,1417.221,712.245,1418.058,716.36,1418.732L716.36,1418.732z"/>
		
			<path fill-rule="evenodd" clip-rule="evenodd" fill="#8093D0" stroke="#231F20" stroke-width="2.8346" stroke-miterlimit="2.4142" d="
			M704.209,1417.19l-1.685-26.231c-1.185-19.618-9.049-17.335-9.708-1.154c-0.317,7.651,0.305,11.827-0.367,19.479
			C696.112,1411.789,700.033,1416.738,704.209,1417.19L704.209,1417.19z"/>
		
			<path fill-rule="evenodd" clip-rule="evenodd" fill="#8093D0" stroke="#231F20" stroke-width="2.8346" stroke-miterlimit="2.4142" d="
			M569.597,1430.69c0.33-7.202-0.244-11.638-0.953-18.321c-3.346-14.144-7.461-15.942-12.346-5.4c0,8.744,0,14.786,0,23.526
			C560.731,1430.883,565.164,1431.332,569.597,1430.69L569.597,1430.69z"/>
		
			<path fill-rule="evenodd" clip-rule="evenodd" fill="#8093D0" stroke="#231F20" stroke-width="2.8346" stroke-miterlimit="2.4142" d="
			M545.308,1426.832c0.061-9.062,0.122-15.043,0.183-24.106c3.346-13.306,6.692-11.956,10.038,4.051
			c0.061,8.612,0.122,14.145,0.184,22.754C552.244,1429.124,548.776,1428.813,545.308,1426.832L545.308,1426.832z"/>
		
			<path fill-rule="evenodd" clip-rule="evenodd" fill="#8093D0" stroke="#231F20" stroke-width="2.8346" stroke-miterlimit="2.4142" d="
			M533.157,1409.088c0.452-7.584,2.052-15.167,2.503-22.754c-3.077-14.975-6.423-17.613-10.026-7.907
			c-0.134,9.705-0.256,19.414-0.391,29.122C528.077,1408.837,529.811,1409.866,533.157,1409.088L533.157,1409.088z"/>
		
			<path fill-rule="evenodd" clip-rule="evenodd" fill="#8093D0" stroke="#231F20" stroke-width="2.8346" stroke-miterlimit="2.4142" d="
			M680.103,1406.584c0.647-8.029-0.208-14.733-0.024-22.592c0.22-9.565,9.672-6.787,10.1,1.993
			c0.439,8.809,0.879,13.269,1.307,21.948C687.271,1408.089,683.803,1408.522,680.103,1406.584L680.103,1406.584z"/>
		
			<path fill-rule="evenodd" clip-rule="evenodd" fill="#B9C5EA" stroke="#231F20" stroke-width="2.8346" stroke-miterlimit="2.4142" d="
			M679.529,1406.969c-0.256-5.913-0.134-12.987-0.391-18.897c0.586-8.127-5.056-20.083-7.229-6.75
			c-0.94,5.785-0.831,8.997-1.246,14.85C672.775,1398.869,676.439,1404.654,679.529,1406.969L679.529,1406.969z"/>
		<path fill-rule="evenodd" clip-rule="evenodd" fill="#231F20" d="M609.334,1298.423c3.981-19.154,7.962-38.309,11.956-57.469
			c0.635-4.503,1.783-8.493,6.558-8.869c1.929,0,3.859,0,5.776,0c3.48,0,5.41,2.058,5.789,6.17c-0.378,2.83-0.77,5.657-1.16,8.487
			c0.134,3.469,2.32,5.397,6.558,5.786c5.789,0.256,11.577,0.513,17.366,0.771c8.67,0.514,14.459,4.238,13.885,15.039
			c-1.807,9.517-3.603,19.029-5.397,28.546c-0.904,5.525-3.346,8.612-7.339,10.025c-2.564-0.128-5.52,0.129-8.097,0
			c-4.506,0.257-7.083-1.41-5.397-7.327c1.673-7.458,3.725-16.843,5.397-24.302c0.66-8.89-2.699-9.396-6.167-10.025
			c-2.955-0.385-5.923,0-8.878-0.385c-4.372,0.632-6.045,4.879-7.327,9.642c-1.93,7.968-3.859,15.942-5.776,23.91
			c-0.904,4.372-1.808,7.199-5.019,8.487c-3.212,0-6.436,0-9.647,0C608.822,1306.142,607.784,1303.312,609.334,1298.423
			L609.334,1298.423z"/>
		<path fill-rule="evenodd" clip-rule="evenodd" fill="#231F20" d="M534.927,1320.618c3.981-20.382,7.95-40.767,11.919-61.151
			c-0.391-3.983,3.212-7.07,6.937-6.938c12.09,0,24.18,0,36.257,0c7.718,0.384,13.982,3.483,17.072,9.616
			c2.552,5.08,3.321,8.606,2.931,14.443c-0.623,9.352-5.312,17.085-10.747,22.607c-6.167,4.629-11.564,7.202-17.731,7.715
			c-6.179,0.129-12.346,0.257-18.513,0.385c-3.578-0.287-7.12,0.653-7.95,3.472c-1.136,3.841-1.893,7.678-3.028,11.519
			c-0.464,1.575-2.027,2.65-4.067,3.523c-3.566,0.052-7.144,0.101-10.71,0.152C533.511,1326.01,534.329,1323.724,534.927,1320.618
			L534.927,1320.618z M560.218,1285.625c0.989-5.392,2.247-11.402,3.212-16.129c1.417-2.833,3.468-4.894,6.949-4.625
			c4.091-0.086,7.449,0.049,11.04,1.417c6.985,2.668,8.854,10.185,5.922,16.708c-3.725,5.914-7.327,9.001-13.103,10.799
			c-2.87,0.61-5.435,1.022-7.914,0.775C559.51,1293.881,559.034,1292.061,560.218,1285.625L560.218,1285.625z"/>
		<path fill-rule="evenodd" clip-rule="evenodd" fill="#231F20" d="M672.629,1320.618c3.969-20.382,7.938-40.767,11.919-61.151
			c-0.391-3.983,3.212-7.07,6.937-6.938c12.09,0,24.167,0,36.257,0c7.718,0.384,13.971,3.483,17.06,9.616
			c2.564,5.08,3.322,8.606,2.943,14.443c-0.623,9.352-5.325,17.085-10.747,22.607c-6.179,4.629-11.577,7.202-17.744,7.715
			c-6.167,0.129-12.346,0.257-18.513,0.385c-3.566-0.287-7.107,0.653-7.938,3.472c-1.148,3.841-1.893,7.678-3.029,11.519
			c-0.476,1.575-2.027,2.65-4.079,3.523c-3.566,0.052-7.132,0.101-10.698,0.152C671.2,1326.01,672.019,1323.724,672.629,1320.618
			L672.629,1320.618z M697.908,1285.625c0.989-5.392,2.259-11.402,3.224-16.129c1.404-2.833,3.456-4.894,6.936-4.625
			c4.104-0.086,7.461,0.049,11.04,1.417c6.985,2.668,8.854,10.185,5.935,16.708c-3.725,5.914-7.327,9.001-13.116,10.799
			c-2.857,0.61-5.422,1.022-7.913,0.775C697.211,1293.881,696.723,1292.061,697.908,1285.625L697.908,1285.625z"/>
		<path fill-rule="evenodd" clip-rule="evenodd" fill="#EBEFFF" d="M439.235,1413.362c-2.027-1.881-3.48-4.003-4.641-6.098
			c-2.271-4.1-2.442-6.713-2.711-11.351c-3.981-68.444-0.488-128.265,21.347-177.186c2.674-6.015,3.15-7.81,8.683-10.533
			c13.226-6.509,33.448-7.419,53.305-6.197c0.513-1.542,1.673-3.084,1.16-4.628c-15.949-1.594-32.654,0.241-48.604,3.858
			c-10.807,1.725-21.358,3.63-23.911,20.827c-21.823,57.692-20.211,112.378-17.964,166.058c0.183,4.437,0.416,7.169,1.747,11.449
			C431.871,1413.097,435.999,1412.666,439.235,1413.362L439.235,1413.362z"/>
		<path fill-rule="evenodd" clip-rule="evenodd" fill="#EBEFFF" d="M522.936,1404.878c0-14.27-1.16-28.543-1.16-42.813
			c-2.003-8.987-1.294-16.724-5.3-23.896c-4.066-7.278-7.144-10.994-10.893-15.833c11.309,17.613,14.911,42.94,10.795,75.986
			C518.686,1400.509,520.615,1402.691,522.936,1404.878L522.936,1404.878z"/>
		
			<path fill-rule="evenodd" clip-rule="evenodd" fill="none" stroke="#231F20" stroke-width="2.8346" stroke-miterlimit="2.4142" d="
			M513.483,1398.292c0.574-10.865-0.391-19.413,0.195-30.279c3.92,0.593,8.158,2.424,10.026,8.677
			c-0.134,10.673-0.256,19.029-0.391,29.699C519.785,1405.039,517.013,1402.726,513.483,1398.292L513.483,1398.292z"/>
		<path fill-rule="evenodd" clip-rule="evenodd" fill="#EBEFFF" d="M544.526,1424.933c-3.077-1.154-5.654-3.34-7.706-6.555
			c-0.513-25.456-1.026-50.911-1.539-76.37c1.282,1.288,2.564,2.573,3.847,3.858c0.904,5.398,1.294,10.802,1.16,16.199
			c0.391,1.029,0.77,2.058,1.16,3.087C540.948,1385.079,542.902,1405.009,544.526,1424.933L544.526,1424.933z"/>
		
			<path fill-rule="evenodd" clip-rule="evenodd" fill="none" stroke="#231F20" stroke-width="2.8346" stroke-miterlimit="2.4142" d="
			M535.086,1420.661c0.061-8.612,0.122-17.228,0.195-25.843c4.115-7.364,7.974-11.443,10.026,7.522c-0.073,9-0.134,18-0.195,27
			C540.997,1427.991,537.651,1425.098,535.086,1420.661L535.086,1420.661z"/>
		
			<path fill-rule="evenodd" clip-rule="evenodd" fill="#231F20" stroke="#231F20" stroke-width="0.216" stroke-miterlimit="2.4142" d="
			M517.721,1338.539c0.257-1.288-0.317-2.57-0.574-3.858c0.647,0.128,1.282,0.256,1.929,0.385c3.346,2.698,6.68,5.4,10.026,8.1
			c1.539-0.772,2.577-1.799,3.089-3.084c1.148,0,2.638,0.513,3.273,1.542c0.134,6.43-0.317,12.856-0.183,19.285
			c1.148,1.157,1.795,2.314,1.917,3.472c4.116-0.03,8.231,0.675,12.346,1.157c0.257,1.028,0.513,1.67,0.77,2.698
			c-5.007-0.388-9.904-0.644-13.885,0c0,0.901,0,1.994,0,2.892c2.577-0.385,6.167,0.131,10.808,0.775
			c0.122,0.897,0.256,1.222,0.378,2.119c-3.859-0.385-7.718-0.452-11.565,0.195c0.464,15.939,0.647,31.689,0,47.632
			c-1.294-2.955-3.737-5.916-5.019-8.871c2.809-20.314,2.284-41.014,0.965-61.325
			C528.736,1346.123,523.229,1342.008,517.721,1338.539L517.721,1338.539z"/>
		<path fill-rule="evenodd" clip-rule="evenodd" fill="#EBEFFF" d="M527.173,1198.146c9.818-3.022,9.696-0.702,20.174-6.942
			c11.333-6.751,25.828-10.606,39.994-11.574c-4.885-2.57-11.564-3.087-18.513-1.542
			C549.154,1183.872,536.564,1190.299,527.173,1198.146L527.173,1198.146z"/>
		<path fill-rule="evenodd" clip-rule="evenodd" fill="#EBEFFF" d="M604.315,1189.658c34.193-9.77,68.399-8.229,102.592,4.628
			c-27.501-12.291-58.226-17.308-102.201-6.942C604.707,1188.886,604.315,1188.113,604.315,1189.658L604.315,1189.658z"/>
	</g>
</g>
</svg>
